<?xml version="1.0" standalone="no"?>
<!DOCTYPE svg PUBLIC "-//W3C//DTD SVG 20010904//EN"
 "http://www.w3.org/TR/2001/REC-SVG-20010904/DTD/svg10.dtd">
<svg version="1.0" xmlns="http://www.w3.org/2000/svg"
     width="800px" height="800px" viewBox="0 0 500.000000 500.000000"
     preserveAspectRatio="xMidYMid meet">

<g transform="translate(0.000000,500.000000) scale(0.100000,-0.100000)"
fill="#0ec0e7" stroke="none">
<path d="M2895 4126 c-122 -63 -140 -211 -35 -300 17 -14 42 -29 56 -32 l24
-6 1 -177 c1 -97 0 -224 -1 -283 -1 -59 1 -111 4 -116 3 -5 17 -7 30 -5 l24 5
1 277 c0 152 0 281 1 288 0 6 14 16 32 22 42 15 86 57 104 100 45 107 -30 232
-149 247 -33 4 -53 0 -92 -20z m123 -37 c47 -16 82 -69 82 -123 0 -39 -6 -52
-36 -86 -33 -36 -41 -40 -86 -40 -60 0 -102 22 -123 66 -32 69 -8 145 56 177
40 19 65 21 107 6z"/>
<path d="M1253 4031 c-61 -29 -93 -81 -93 -154 0 -90 47 -156 125 -177 20 -6
20 -15 23 -468 l2 -462 145 0 c138 0 145 1 145 20 0 19 -7 20 -120 20 l-120 0
0 440 0 440 37 15 c76 32 113 88 113 171 0 128 -137 211 -257 155z m151 -50
c40 -27 55 -57 56 -112 1 -137 -182 -177 -242 -54 -28 57 -18 108 29 152 29
28 42 33 81 33 30 0 58 -7 76 -19z"/>
<path d="M4302 3969 c-49 -25 -76 -58 -91 -116 -23 -86 22 -171 111 -210 l38
-17 0 -898 0 -898 -172 -2 c-171 -3 -173 -3 -176 -26 l-3 -22 198 2 198 3 2
900 c2 495 3 909 3 921 0 14 13 27 45 42 66 32 105 91 105 159 0 60 -9 84 -49
126 -54 58 -135 72 -209 36z m162 -59 c65 -58 69 -135 8 -193 -52 -49 -127
-48 -180 4 -56 54 -54 126 4 185 30 30 41 34 84 34 41 0 55 -5 84 -30z"/>
<path d="M570 3378 c-82 -24 -130 -89 -130 -181 0 -69 39 -127 105 -154 l45
-18 1 -140 c0 -77 1 -435 2 -795 l2 -655 278 -3 c271 -2 277 -2 277 18 0 19
-8 20 -252 22 l-253 3 -3 776 -2 776 29 6 c48 10 98 62 117 121 16 49 16 56 0
104 -20 59 -67 106 -123 121 -44 13 -47 12 -93 -1z m118 -65 c32 -20 62 -72
62 -109 0 -69 -82 -140 -148 -130 -49 7 -99 50 -111 93 -33 118 93 211 197
146z"/>
<path d="M2520 3311 c-45 -32 -427 -280 -1173 -762 l-102 -67 0 -628 0 -629
48 -3 47 -3 0 603 1 603 47 30 c26 16 99 63 162 104 117 76 264 171 380 246
36 23 117 76 180 117 415 270 464 301 475 301 6 0 166 -102 358 -227 191 -124
350 -226 352 -226 3 0 5 45 5 100 l0 100 195 0 195 0 0 -229 0 -228 70 -47 70
-46 0 -601 0 -600 48 3 47 3 3 626 2 626 -75 49 -75 49 0 248 0 247 -290 0
-290 0 0 -56 c0 -46 -3 -55 -15 -50 -8 3 -74 44 -147 92 -73 48 -155 101 -183
119 -27 18 -96 62 -153 99 -56 37 -108 69 -115 71 -6 2 -37 -13 -67 -34z"/>
<path d="M2188 2515 c-245 -27 -373 -66 -373 -115 0 -44 95 -77 309 -107 173
-24 787 -24 962 0 212 30 309 64 309 107 0 51 -130 89 -390 115 -174 18 -652
18 -817 0z"/>
<path d="M1800 2213 c0 -158 5 -171 72 -196 279 -101 1071 -110 1408 -17 126
35 120 26 120 200 l0 149 -32 -19 c-118 -68 -584 -111 -967 -90 -332 19 -467
43 -593 108 -5 2 -8 -59 -8 -135z"/>
<path d="M1800 1862 c0 -129 2 -151 18 -164 75 -67 362 -108 758 -108 l244 0
0 50 0 50 44 0 c37 0 46 4 51 21 5 15 -1 29 -24 53 l-31 32 51 48 c28 26 49
49 47 51 -2 1 -79 -2 -173 -8 -368 -22 -867 31 -958 104 l-27 20 0 -149z"/>
<path d="M3358 1975 c-32 -17 -38 -25 -38 -52 0 -23 5 -33 21 -38 34 -11 61
23 57 71 l-3 39 -37 -20z"/>
<path d="M3150 1901 c0 -36 -2 -39 -46 -56 l-46 -17 -27 26 -27 26 -44 -45
-44 -44 27 -25 c32 -30 32 -29 10 -77 -16 -35 -22 -39 -55 -39 l-38 0 0 -65 0
-65 38 0 c35 0 38 -3 56 -46 l19 -45 -27 -28 -27 -28 43 -41 c24 -23 45 -42
49 -42 3 0 16 11 29 25 21 23 24 23 51 10 15 -8 35 -15 43 -15 10 0 16 -13 18
-42 l3 -43 63 -3 62 -3 0 40 c0 38 3 41 43 59 l42 19 30 -28 31 -29 43 44 44
45 -26 31 c-20 23 -24 35 -17 48 6 9 14 29 20 45 8 23 15 27 50 27 l41 0 -3
63 -3 62 -38 3 c-34 3 -40 8 -57 45 l-18 42 26 28 26 27 -44 45 -44 45 -27
-26 -28 -27 -45 19 c-43 18 -46 21 -46 57 l0 37 -65 0 -65 0 0 -39z m140 -176
c77 -40 109 -138 71 -214 -52 -101 -180 -119 -261 -36 -29 30 -34 43 -37 92
-5 69 16 116 67 151 39 26 116 30 160 7z"/>
<path d="M3055 1901 c-3 -5 -1 -12 5 -16 13 -8 50 3 50 16 0 12 -47 12 -55 0z"/>
<path d="M1800 1510 c0 -135 1 -142 24 -165 39 -39 175 -72 396 -96 116 -12
653 -15 720 -4 l42 7 -56 57 c-31 31 -56 61 -56 66 0 5 12 22 27 37 36 38 23
62 -35 66 -36 3 -41 6 -44 30 l-3 27 -235 2 c-129 1 -289 7 -355 13 -205 19
-381 59 -400 89 -19 31 -25 -1 -25 -129z"/>
<path d="M3055 1270 c-4 -6 7 -10 25 -10 18 0 29 4 25 10 -3 6 -15 10 -25 10
-10 0 -22 -4 -25 -10z"/>
<path d="M3211 1107 c-55 -28 -77 -125 -45 -193 30 -63 79 -80 134 -47 37 22
50 52 50 119 0 69 -20 109 -61 123 -40 14 -48 14 -78 -2z m81 -54 c24 -22 25
-109 1 -135 -23 -25 -69 -24 -84 3 -14 28 -13 117 2 135 16 19 58 18 81 -3z"/>
<path d="M3640 1107 c-13 -7 -29 -25 -35 -40 -14 -41 10 -76 65 -97 49 -19 63
-46 34 -67 -25 -18 -32 -17 -59 13 -15 16 -31 24 -40 20 -14 -5 -14 -9 0 -36
27 -53 82 -66 129 -29 19 15 26 30 26 55 0 51 -15 72 -60 85 -44 13 -65 32
-55 49 9 15 51 12 65 -5 12 -14 50 -21 50 -10 0 20 -33 63 -52 69 -32 8 -40 7
-68 -7z"/>
<path d="M1220 985 l0 -126 62 3 c58 3 64 5 85 37 37 55 28 162 -17 198 -8 7
-41 13 -72 13 l-58 0 0 -125z m111 68 c8 -9 14 -39 14 -68 0 -61 -16 -85 -56
-85 l-29 0 0 85 0 85 29 0 c16 0 35 -7 42 -17z"/>
<path d="M1485 1098 c-11 -33 -75 -231 -75 -234 0 -2 8 -4 19 -4 11 0 23 12
31 30 11 26 17 30 52 30 35 0 41 -4 51 -30 7 -18 19 -30 29 -30 10 0 18 3 18
7 0 4 -17 60 -37 125 -34 106 -40 118 -61 118 -12 0 -25 -6 -27 -12z m50 -120
c6 -15 2 -18 -23 -18 -30 0 -31 1 -21 33 20 62 22 63 29 32 4 -16 11 -38 15
-47z"/>
<path d="M1610 1090 c0 -16 7 -20 30 -20 l30 0 0 -105 c0 -98 1 -105 20 -105
19 0 20 7 20 105 l0 105 30 0 c23 0 30 4 30 20 0 18 -7 20 -80 20 -73 0 -80
-2 -80 -20z"/>
<path d="M1837 1103 c-3 -4 -19 -55 -37 -112 -17 -57 -34 -110 -37 -118 -3 -8
2 -13 16 -13 15 0 25 9 32 30 10 27 16 30 50 30 35 0 41 -3 50 -30 7 -20 18
-30 31 -30 24 0 22 13 -25 150 -26 77 -36 96 -54 98 -11 2 -23 0 -26 -5z m37
-87 c3 -13 9 -31 12 -40 5 -12 0 -16 -24 -16 l-29 0 10 40 c13 46 22 51 31 16z"/>
<path d="M2046 1093 c6 -24 44 -223 44 -229 0 -2 11 -4 24 -4 21 0 25 7 41 85
10 47 22 85 27 85 4 0 8 -6 8 -14 0 -7 7 -46 16 -85 14 -62 19 -71 39 -71 21
0 24 9 45 120 13 66 20 123 17 126 -18 18 -35 -11 -47 -81 -7 -42 -16 -72 -20
-68 -4 4 -13 41 -20 81 -13 68 -15 72 -40 72 -25 0 -27 -4 -40 -72 -16 -92
-27 -104 -35 -42 -12 89 -20 109 -42 112 -16 2 -20 -1 -17 -15z"/>
<path d="M2347 993 c-21 -65 -37 -121 -37 -125 0 -5 9 -8 19 -8 12 0 23 11 30
31 9 27 14 30 48 27 30 -2 41 -9 51 -30 12 -25 53 -41 52 -20 0 4 -18 59 -39
122 -34 101 -42 115 -63 118 -23 3 -26 -4 -61 -115z m79 -1 c6 -30 4 -32 -20
-32 -30 0 -30 2 -14 47 14 37 25 33 34 -15z"/>
<path d="M2540 985 c0 -118 1 -125 20 -125 17 0 20 7 20 50 0 43 3 50 19 50
13 0 29 -17 48 -50 21 -37 34 -50 51 -50 12 0 22 2 22 5 0 11 -32 70 -47 87
-13 15 -12 18 6 27 28 16 38 74 17 106 -15 23 -23 25 -86 25 l-70 0 0 -125z
m119 67 c15 -28 -5 -52 -44 -52 -33 0 -35 2 -35 35 0 33 2 35 35 35 23 0 38
-6 44 -18z"/>
<path d="M2750 985 l0 -125 80 0 c73 0 80 2 80 20 0 18 -7 20 -60 20 l-60 0 0
35 0 35 55 0 c48 0 55 2 55 20 0 18 -7 20 -55 20 -54 0 -55 0 -55 30 l0 30 60
0 c53 0 60 2 60 20 0 18 -7 20 -80 20 l-80 0 0 -125z"/>
<path d="M2950 985 c0 -118 1 -125 20 -125 18 0 20 7 20 55 l0 55 40 0 40 0 0
-55 c0 -48 2 -55 20 -55 19 0 20 7 20 125 0 118 -1 125 -20 125 -17 0 -20 -7
-20 -50 l0 -50 -40 0 -40 0 0 50 c0 43 -3 50 -20 50 -19 0 -20 -7 -20 -125z"/>
<path d="M3392 999 c3 -102 5 -112 27 -130 32 -26 74 -24 108 5 27 23 28 28
31 130 4 102 3 106 -17 106 -20 0 -21 -6 -21 -79 0 -119 -26 -165 -70 -121
-17 17 -20 34 -20 110 0 85 -1 90 -21 90 -20 0 -21 -4 -17 -111z"/>
<path d="M3800 985 l0 -125 80 0 c73 0 80 2 80 20 0 18 -7 20 -60 20 l-60 0 0
35 0 35 55 0 c48 0 55 2 55 20 0 18 -7 20 -55 20 -54 0 -55 0 -55 30 0 30 1
30 55 30 48 0 55 2 55 20 0 18 -7 20 -75 20 l-75 0 0 -125z"/>
</g>
</svg>
