<?xml version="1.0" standalone="no"?>
<!DOCTYPE svg PUBLIC "-//W3C//DTD SVG 20010904//EN"
 "http://www.w3.org/TR/2001/REC-SVG-20010904/DTD/svg10.dtd">
<svg version="1.0" xmlns="http://www.w3.org/2000/svg"
 width="800px" height="800px" viewBox="0 0 360.000000 360.000000"
 preserveAspectRatio="xMidYMid meet">

<g transform="translate(0.000000,360.000000) scale(0.100000,-0.100000)"
fill="#e7150e" stroke="none">
<path d="M1733 3585 c-17 -7 -71 -40 -120 -72 -48 -33 -94 -63 -101 -67 -7 -5
-15 1 -21 16 -5 13 -21 34 -36 48 -26 25 -29 25 -196 25 l-169 0 -32 -33 -33
-32 -3 -178 -3 -177 -181 -120 c-111 -73 -188 -132 -200 -150 -30 -50 -23 -92
28 -170 59 -89 78 -105 132 -105 l42 0 0 -456 0 -456 -171 -227 -171 -228 -84
-7 c-201 -15 -349 -78 -394 -166 -19 -37 -20 -59 -20 -430 0 -371 1 -393 20
-430 55 -107 277 -179 510 -166 161 9 252 35 349 99 80 54 81 57 81 496 0 372
-1 386 -21 429 -12 24 -30 49 -40 55 -11 7 -19 17 -19 22 0 6 44 69 98 141
l97 129 273 3 272 2 0 -97 0 -98 -80 -24 c-103 -31 -171 -77 -199 -134 -20
-42 -21 -57 -21 -427 0 -371 1 -385 21 -428 110 -226 808 -225 918 1 20 42 21
58 21 427 0 445 1 440 -93 503 -47 32 -160 77 -194 77 -10 0 -13 23 -13 100
l0 100 273 -2 272 -3 98 -129 c53 -72 97 -135 97 -141 0 -5 -8 -15 -19 -22
-10 -6 -28 -31 -40 -55 -20 -43 -21 -57 -21 -429 0 -354 2 -387 19 -425 34
-74 147 -134 302 -159 118 -19 188 -19 312 0 157 24 274 84 308 159 17 38 19
71 19 429 0 368 -1 390 -20 427 -45 87 -196 151 -395 166 l-83 7 -171 227
-171 228 0 456 0 456 43 0 c53 0 72 16 131 105 50 76 57 114 31 165 -11 22
-159 126 -542 381 -290 194 -542 358 -560 365 -41 18 -89 17 -130 -1z m600
-446 c281 -188 516 -345 521 -350 5 -4 -5 -29 -23 -58 l-33 -50 -481 322
c-404 270 -488 322 -517 322 -29 0 -113 -52 -517 -322 l-481 -322 -33 50 c-17
27 -29 53 -25 56 31 31 1036 692 1054 692 13 1 223 -133 535 -340z m-953 249
c0 -34 -8 -40 -211 -171 l-29 -19 0 111 0 111 120 0 120 0 0 -32z m850 -470
l410 -273 0 -528 c0 -581 2 -564 -60 -601 -25 -14 -102 -16 -780 -16 -678 0
-755 2 -780 16 -62 37 -60 20 -60 601 l0 528 418 278 c229 152 423 275 430
272 7 -2 197 -127 422 -277z m-1316 -1464 c27 -30 36 -48 29 -56 -124 -168
-179 -238 -188 -238 -27 1 -105 26 -106 35 -2 11 213 305 221 304 3 -1 22 -21
44 -45z m1930 -102 c60 -81 108 -151 107 -157 -1 -9 -79 -34 -106 -35 -9 0
-64 70 -188 238 -7 8 2 26 29 56 22 24 41 44 44 45 3 0 54 -66 114 -147z
m-984 -62 l0 -90 -60 0 -60 0 0 90 0 90 60 0 60 0 0 -90z m-1159 -239 c36 -11
81 -31 100 -44 103 -69 -45 -154 -286 -164 -139 -6 -238 11 -324 54 -94 48
-94 78 0 126 87 44 166 57 314 53 97 -3 147 -9 196 -25z m1320 0 c36 -11 81
-31 100 -44 103 -69 -45 -154 -286 -164 -139 -6 -238 11 -324 54 -94 48 -94
78 0 126 87 44 166 57 314 53 97 -3 147 -9 196 -25z m1320 0 c36 -11 81 -31
100 -44 103 -69 -45 -154 -286 -164 -139 -6 -238 11 -324 54 -94 48 -94 78 0
126 87 44 166 57 314 53 97 -3 147 -9 196 -25z m-3177 -275 c164 -68 453 -69
629 -1 20 8 40 15 42 15 3 0 5 -47 5 -105 l0 -104 -37 -26 c-75 -51 -163 -70
-323 -70 -160 0 -248 19 -322 70 l-38 26 0 104 c0 58 2 105 5 105 3 0 21 -6
39 -14z m1323 -1 c101 -39 167 -49 318 -48 131 0 160 3 235 26 47 14 93 29
103 32 16 7 17 0 15 -101 l-3 -108 -34 -23 c-72 -49 -163 -68 -321 -68 -158 0
-249 19 -321 68 l-34 23 -3 107 c-1 59 0 107 2 107 3 0 23 -7 43 -15z m1317 1
c162 -67 470 -67 632 0 18 8 36 14 39 14 3 0 5 -47 5 -105 l0 -104 -37 -26
c-75 -51 -163 -70 -323 -70 -160 0 -248 19 -322 70 l-38 26 0 104 c0 58 2 105
5 105 3 0 21 -6 39 -14z m-2636 -360 c67 -33 176 -51 317 -50 139 1 211 12
308 49 20 8 40 15 43 15 2 0 3 -48 2 -107 l-3 -107 -34 -23 c-72 -49 -163 -68
-321 -68 -158 0 -249 19 -321 68 l-34 23 -3 107 c-3 114 -1 117 46 93z m1352
-12 c157 -53 399 -55 545 -4 33 12 68 24 78 27 16 5 17 -3 15 -103 l-3 -108
-34 -23 c-72 -49 -163 -68 -321 -68 -158 0 -249 19 -321 68 l-34 23 -3 107
c-1 59 -1 107 0 107 2 0 37 -12 78 -26z m1287 11 c99 -38 168 -49 313 -49 145
0 214 11 313 49 20 8 40 15 43 15 2 0 3 -48 2 -107 l-3 -107 -34 -23 c-72 -49
-163 -68 -321 -68 -158 0 -249 19 -321 68 l-34 23 -3 107 c-1 59 0 107 2 107
3 0 23 -7 43 -15z"/>
<path d="M1655 2810 c-157 -25 -277 -88 -314 -162 -20 -43 -21 -57 -21 -429 0
-448 -1 -442 92 -503 237 -156 765 -107 849 78 17 38 19 71 19 425 0 371 -1
386 -21 428 -31 65 -114 115 -244 148 -73 19 -278 27 -360 15z m366 -139 c180
-57 178 -126 -5 -184 -103 -32 -329 -32 -432 0 -129 41 -173 89 -119 131 33
26 121 60 188 72 87 15 292 5 368 -19z m-500 -286 c107 -37 254 -51 382 -37
56 6 135 23 176 37 41 14 76 25 78 25 2 0 2 -48 1 -107 l-3 -107 -34 -23 c-72
-49 -163 -68 -321 -68 -160 0 -248 19 -322 70 l-38 26 0 104 c0 58 1 105 3
105 2 0 37 -11 78 -25z m14 -365 c140 -49 390 -49 530 0 33 12 68 24 78 27 15
5 17 -4 17 -100 l0 -106 -37 -26 c-75 -51 -163 -70 -323 -70 -158 0 -249 19
-321 68 l-34 23 -3 108 c-2 100 -1 108 15 103 10 -3 45 -15 78 -27z"/>
</g>
</svg>
