<svg xmlns="http://www.w3.org/2000/svg" viewBox="0 0 100 100" width="100" height="100">
  <path d="M28 10 h32 l12 12 v58 a4 4 0 0 1 -4 4 h-40 a4 4 0 0 1 -4 -4 v-66 a4 4 0 0 1 4 -4 z" fill="#00700c"/>
  <path d="M60 10 v12 h12 z" fill="#00a31a"/>
  <rect x="34" y="40" width="26" height="4" rx="2" fill="#ffffff"/>
  <rect x="34" y="50" width="26" height="4" rx="2" fill="#ffffff"/>
  <rect x="34" y="60" width="16" height="4" rx="2" fill="#ffffff"/>
  <circle cx="70" cy="72" r="16" fill="#ffffff"/>
  <circle cx="70" cy="72" r="16" fill="#00700c" opacity="0.08"/>
  <path d="M63 72 l5 5 l9 -10" fill="none" stroke="#00700c" stroke-width="4" stroke-linecap="round" stroke-linejoin="round"/>
</svg>
