<svg xmlns="http://www.w3.org/2000/svg" width="800px" height="288ox" viewBox="0 0 719 288" version="1.1"><path d="M 62 86 C 59.435 88.565, 59.433 93.177, 61.997 95.497 C 64.805 98.039, 69.961 97.691, 72.177 94.811 C 74.508 91.781, 74.449 89.841, 71.927 86.635 C 69.392 83.411, 64.878 83.122, 62 86 M 144.913 93.282 C 143.129 94.652, 141 98.296, 141 99.980 C 141 100.591, 142.105 102.195, 143.455 103.545 C 149.521 109.612, 157.861 103.305, 153.850 95.684 C 151.831 91.847, 148.091 90.842, 144.913 93.282 M 180.500 118.983 C 178.300 119.314, 174.983 120.346, 173.129 121.276 C 171.274 122.207, 169.292 122.681, 168.724 122.329 C 168.148 121.973, 167.990 122.175, 168.367 122.784 C 168.738 123.385, 168.458 124.242, 167.744 124.689 C 165.097 126.343, 160.196 133.626, 159.121 137.500 C 157.583 143.043, 157.725 150.406, 159.449 154.532 C 160.246 156.439, 160.664 158, 160.378 158 C 160.091 158, 160.595 158.738, 161.497 159.640 C 162.400 160.542, 163.834 162.342, 164.684 163.640 C 165.534 164.938, 166.901 166, 167.722 166 C 168.722 166, 168.996 166.567, 168.554 167.720 C 168.191 168.665, 168.199 169.135, 168.571 168.762 C 168.943 168.390, 171.104 169.066, 173.374 170.263 C 179.432 173.460, 189.811 173.341, 196.377 170 C 213.515 161.280, 216.848 138.130, 202.793 125.432 C 196.494 119.741, 189.299 117.660, 180.500 118.983 M 106.557 141.223 C 101.525 148.406, 110.830 156.246, 116.677 149.750 C 119.886 146.185, 120.030 144.511, 117.372 141.646 C 114.179 138.202, 108.819 137.992, 106.557 141.223 M 140.313 158.786 C 139.659 159.201, 138.625 160.857, 138.013 162.466 C 135.665 168.643, 144.205 173.795, 148.941 169.059 C 153.063 164.937, 150.390 157.988, 144.693 158.015 C 142.937 158.024, 140.966 158.370, 140.313 158.786 M 129.174 205.314 C 126.459 208.204, 126.437 210.014, 129.073 213.365 C 131.787 216.816, 137.165 217.030, 139.443 213.777 C 144.433 206.654, 135.124 198.982, 129.174 205.314" stroke="none" fill="#a6a932" fill-rule="evenodd"/><path d="M 377.091 75.037 C 373.016 76.610, 369.310 78.483, 368.856 79.198 C 367.574 81.220, 367.796 179.950, 369.096 186.014 C 371.391 196.714, 380.705 201.328, 395.553 199.120 C 406.860 197.438, 410.314 195.165, 406.442 191.952 C 405.586 191.241, 403.716 188.665, 402.287 186.227 C 399.795 181.974, 399.537 181.818, 395.949 182.392 C 393.203 182.831, 391.648 182.526, 390.097 181.245 C 388 179.513, 387.982 179.089, 387.742 126.014 C 387.531 79.335, 387.309 72.505, 386 72.352 C 385.175 72.256, 381.166 73.464, 377.091 75.037 M 644.494 74.808 C 640.640 76.289, 636.928 77.864, 636.244 78.309 C 635.335 78.900, 635 83.579, 635 95.701 L 635 112.285 628.952 111.653 C 602.977 108.938, 581.162 125.398, 578.056 150.055 C 576.103 165.558, 579.849 179.482, 588.480 188.805 C 596.187 197.130, 601.400 199.497, 612.025 199.499 C 621.130 199.500, 626.380 197.914, 632.816 193.218 C 634.639 191.887, 636.270 190.956, 636.439 191.149 C 636.607 191.342, 637.489 192.963, 638.399 194.750 L 640.051 198 649.026 198 C 653.962 198, 658 197.607, 658 197.126 C 658 196.645, 657.325 194.338, 656.500 192 C 655.235 188.414, 655 178.938, 655 131.456 C 655 100.495, 654.727 74.452, 654.393 73.582 C 653.600 71.516, 652.809 71.614, 644.494 74.808 M 240.250 91.683 L 233 94.124 233.006 138.312 C 233.009 167.474, 233.387 183.860, 234.116 186.500 C 235.499 191.505, 241.296 197.173, 246.685 198.787 C 254.822 201.225, 269.300 199.654, 275.375 195.674 L 277.908 194.014 275.976 189.757 C 274.913 187.416, 274.034 184.488, 274.022 183.250 C 273.996 180.627, 272.362 180.409, 268.364 182.494 C 264.002 184.769, 256.724 184.458, 254.405 181.897 C 252.656 179.966, 252.474 177.717, 252.188 154.397 L 251.875 129 262.356 129 L 272.837 129 275.012 122.464 C 276.208 118.870, 276.934 115.270, 276.625 114.464 C 276.174 113.291, 273.674 113, 264.031 113 L 252 113 252 101 C 252 87.009, 252.635 87.513, 240.250 91.683 M 72.493 94.012 C 72.146 94.573, 74.682 96.293, 78.184 97.872 C 92.751 104.439, 108.102 111.493, 117 115.709 C 122.225 118.185, 130.387 121.932, 135.137 124.036 C 139.888 126.140, 146.964 129.467, 150.862 131.431 C 158.614 135.334, 160 135.673, 160 133.665 C 160 132.931, 155.162 130.170, 149.250 127.530 C 143.338 124.890, 134.900 121.053, 130.500 119.002 C 126.100 116.952, 116.875 112.672, 110 109.492 C 103.125 106.312, 92.372 101.301, 86.104 98.355 C 73.881 92.612, 73.444 92.472, 72.493 94.012 M 152 105.106 C 152 105.715, 155.037 110.073, 158.750 114.791 C 162.463 119.510, 165.819 123.846, 166.208 124.427 C 166.705 125.167, 167.237 125.163, 167.987 124.413 C 168.938 123.462, 163.530 115.650, 155.130 105.839 C 153.358 103.769, 152 103.451, 152 105.106 M 313 111.998 C 301.872 113.487, 290 117.985, 290 120.713 C 290 122.441, 295.191 131.997, 296.131 131.999 C 296.478 132, 299.853 130.818, 303.631 129.373 C 312.586 125.948, 322.907 125.604, 328.022 128.559 C 332.173 130.957, 334.996 136.092, 334.998 141.250 L 335 145 328.224 145 C 303.617 145, 289.559 151.643, 285.543 165.167 C 283.593 171.733, 283.600 175.290, 285.575 181.941 C 287.618 188.820, 294.558 195.980, 301.463 198.333 C 311.183 201.645, 324.395 199.614, 332.284 193.597 C 334.157 192.169, 335.949 191, 336.267 191 C 336.585 191, 337.365 192.575, 338 194.500 L 339.155 198 346.328 198.158 C 353.648 198.320, 357.161 198.172, 357.652 197.682 C 357.803 197.530, 357.233 195.178, 356.386 192.453 C 355.240 188.769, 354.662 180.199, 354.131 159 C 353.472 132.654, 353.258 130.198, 351.297 126.500 C 348.853 121.891, 343.851 116.903, 339.459 114.694 C 336.742 113.328, 322.687 110.796, 319.678 111.131 C 319.030 111.203, 316.025 111.593, 313 111.998 M 435.254 112.441 C 419.764 116.193, 408.845 131.232, 407.328 150.901 C 405.675 172.342, 415.478 190.861, 431.753 197.041 C 438.727 199.689, 452.119 200.668, 460.334 199.129 C 467.133 197.856, 478.004 193.229, 477.990 191.613 C 477.985 191.001, 476.881 188.137, 475.536 185.250 C 472.923 179.636, 471.684 179.078, 467.102 181.447 C 465.563 182.243, 461.325 183.443, 457.685 184.114 C 444.957 186.459, 434.087 181.679, 429.436 171.690 C 428.107 168.836, 427.015 165.270, 427.010 163.766 L 427 161.033 453.750 160.766 L 480.500 160.500 480.815 156.672 C 481.257 151.299, 479.367 140.057, 476.924 133.526 C 474.543 127.163, 466.533 117.823, 461.065 115.033 C 457.262 113.093, 447.447 110.940, 443.066 111.085 C 441.655 111.132, 438.139 111.742, 435.254 112.441 M 533.526 112.095 C 527.486 113.071, 522.134 115.336, 515.500 119.727 L 510.500 123.036 510 118.268 L 509.500 113.500 501 113.500 L 492.500 113.500 492.239 155.434 C 492.086 180.029, 492.356 197.602, 492.893 197.934 C 493.612 198.379, 507.739 198.497, 511.250 198.087 C 511.663 198.039, 512 184.523, 512 168.051 L 512 138.102 515.250 135.665 C 521.754 130.789, 526.605 129, 533.324 129 C 538.866 129, 540.073 129.345, 542.295 131.568 C 546.274 135.547, 547 141.624, 547 170.966 C 547 187.558, 547.374 197.961, 547.977 198.167 C 548.514 198.350, 552.821 198.354, 557.547 198.175 L 566.141 197.849 565.792 164.175 C 565.464 132.520, 565.317 130.228, 563.349 125.966 C 561.052 120.990, 555.364 115.444, 550.573 113.508 C 546.182 111.734, 539.292 111.163, 533.526 112.095 M 439.791 126.957 C 432.857 129.127, 427 136.847, 427 143.816 L 427 147 444.088 147 L 461.176 147 460.487 142.750 C 458.623 131.241, 449.165 124.024, 439.791 126.957 M 613.240 129.804 C 607.688 132.014, 602.822 136.744, 599.962 142.709 C 598.113 146.567, 597.654 149.253, 597.606 156.500 C 597.526 168.526, 599.020 173.115, 604.942 179.037 C 608.750 182.845, 610.665 183.977, 614.193 184.506 C 619.868 185.357, 625.581 183.810, 630.846 179.997 L 635 176.987 635 153.101 C 635 132.242, 634.800 129.137, 633.418 128.607 C 630.192 127.369, 617.460 128.125, 613.240 129.804 M 119.667 144.667 C 117.704 146.630, 120.694 147, 138.500 147 C 155.167 147, 158 146.782, 158 145.500 C 158 144.220, 155.241 144, 139.167 144 C 128.808 144, 120.033 144.300, 119.667 144.667 M 154.500 158.170 C 149.553 160.744, 149.662 160.643, 150.453 161.924 C 150.876 162.608, 152.859 162.092, 156.090 160.454 C 158.831 159.065, 160.806 157.495, 160.478 156.964 C 159.669 155.655, 159.120 155.766, 154.500 158.170 M 312.500 160.503 C 306.605 162.588, 304 166.088, 304 171.921 C 304 183.403, 314.933 188.096, 327.253 181.902 C 334.771 178.122, 335 177.707, 335 167.845 L 335 159 325.750 159.044 C 320.440 159.069, 314.796 159.691, 312.500 160.503 M 152.496 184.210 C 139.190 200.925, 136.515 205, 138.849 205 C 139.315 205, 142.622 201.287, 146.197 196.750 C 171.012 165.254, 170.484 166, 167.996 166 C 167.444 166, 160.469 174.195, 152.496 184.210" stroke="none" fill="#05528f" fill-rule="evenodd"/></svg>