<svg xmlns="http://www.w3.org/2000/svg" width="512" height="512" viewBox="0 0 512 512" version="1.1"><path d="M 176.016 7.112 C 170.706 9.770, 165.385 13.502, 160.974 17.664 L 154.148 24.103 146.824 21.857 C 137.635 19.039, 125.159 18.855, 116.500 21.409 C 90.648 29.036, 74.066 50.794, 74.015 77.155 L 74 84.810 69.353 87.533 C 62.816 91.364, 53.178 101.410, 48.724 109.035 C 43.175 118.534, 40.789 126.844, 40.250 138.548 L 39.788 148.597 34.452 151.391 C 23.427 157.163, 14.972 169.276, 12.697 182.559 C 11.394 190.166, 12.829 200.785, 16.001 207.003 L 17.992 210.905 13.236 217.202 C 4.227 229.133, 0 241.842, 0 257 C -0 268.535, 1.722 275.849, 6.959 286.550 C 11.325 295.472, 20.264 305.988, 26.892 310 C 29.530 311.597, 30.854 313.042, 30.557 314 C 30.302 314.825, 29.090 318.200, 27.865 321.500 C 24.850 329.619, 24.600 346.821, 27.377 355 C 30.730 364.874, 35.328 372.327, 42.491 379.500 L 49.481 386.500 49.148 398.500 C 48.801 410.962, 50.107 421.373, 52.630 426.250 C 55.364 431.538, 62.566 432.118, 65.720 427.305 C 67.196 425.052, 67.186 423.991, 65.598 414.056 C 63.596 401.530, 64.063 394.326, 67.617 382.922 C 71.781 369.558, 80.424 358.206, 92.664 350.018 C 101.227 344.291, 112.008 340.556, 123 339.508 C 131.796 338.669, 135 336.531, 135 331.500 C 135 326.153, 131.654 324, 123.346 324 C 105.228 324, 84.074 333.676, 70.303 348.263 C 65.135 353.738, 57.605 364.519, 56.485 368.049 C 55.598 370.841, 53.420 369.433, 48.934 363.169 C 43.247 355.226, 40.585 345.844, 41.263 336.128 C 41.556 331.933, 42.582 326.546, 43.543 324.158 C 45.182 320.085, 45.484 319.852, 48.395 320.404 C 50.103 320.727, 55.100 321.273, 59.500 321.617 C 66.558 322.168, 67.789 322.007, 69.950 320.249 C 71.739 318.795, 72.400 317.273, 72.400 314.607 C 72.400 308.861, 69.693 306.920, 60.357 305.974 C 34.610 303.364, 15.717 282.655, 15.681 257 C 15.652 236.193, 28.292 217.954, 47.656 210.864 C 57.525 207.250, 60.644 201.553, 55.545 196.455 C 52.159 193.068, 48.125 193.315, 38.549 197.496 C 29.694 201.361, 29.480 201.291, 28.406 194.187 C 26.350 180.588, 33.639 167.767, 45.901 163.419 C 56.289 159.736, 57.251 158.258, 55.865 148.122 C 54.503 138.161, 57.108 125.453, 62.223 117.110 C 64.863 112.803, 72.382 104.576, 76.091 101.935 C 78.744 100.046, 78.744 100.046, 82.350 105.887 C 89.782 117.928, 103.961 128.365, 117.093 131.460 C 131.224 134.791, 138.400 132.820, 138.400 125.607 C 138.400 120.054, 135.855 118.186, 126.713 117.027 C 111.791 115.135, 100.774 107.393, 94.266 94.223 C 90.629 86.865, 90.500 86.241, 90.500 76.031 C 90.500 66.134, 90.707 65.038, 93.734 58.890 C 101.660 42.789, 120.562 32.706, 137.065 35.775 C 140.400 36.395, 146.266 38.349, 150.100 40.116 C 156.566 43.096, 157.281 43.226, 159.964 41.915 C 161.555 41.137, 164.383 38.250, 166.249 35.500 C 170.323 29.494, 179.965 21.915, 186.645 19.466 C 193.899 16.806, 195.511 14.766, 195.115 8.750 C 194.921 5.796, 191.274 3, 187.616 3 C 185.651 3, 180.786 4.725, 176.016 7.112 M 217.465 3.976 C 213.482 5.542, 211.982 9.174, 213.280 14.106 C 213.811 16.123, 215.701 17.548, 221.633 20.403 C 234.284 26.492, 243.975 38.253, 246.940 51.115 C 247.589 53.929, 247.960 96.239, 247.976 169.250 L 248 283 233.114 283 C 218.773 283, 218.033 282.898, 212.899 280.216 C 206.248 276.741, 202 269.618, 202 261.942 C 202 255.707, 199.052 251.924, 194.083 251.783 C 189.138 251.643, 186 255.560, 186 261.874 C 186 267.474, 188.381 276.175, 191.156 280.716 L 193.121 283.933 188.780 285.973 C 178.248 290.924, 171.090 301.290, 170.852 311.936 C 170.746 316.675, 171.075 317.668, 173.421 319.686 C 178.972 324.461, 185.153 321.135, 186.419 312.692 C 186.833 309.931, 188.171 306.761, 189.680 304.969 C 194.550 299.181, 195.558 299, 222.950 299 L 248 299 248 371.790 C 248 451.789, 248.125 449.954, 241.811 463 C 237.308 472.306, 226.763 482.622, 217 487.273 C 181.203 504.326, 139.928 481.203, 136.441 442.142 C 135.702 433.872, 134.524 431.378, 130.728 430.055 C 126.898 428.720, 123.032 430.447, 121.174 434.323 C 119.526 437.760, 120.968 450.688, 123.973 459.421 L 125.892 465 122.196 464.985 C 111.423 464.942, 97.979 459.310, 86.121 449.873 C 77.923 443.348, 75.197 442.713, 71.455 446.455 C 66.506 451.403, 68.638 456.573, 78.817 464.301 C 92.780 474.901, 106.653 479.998, 123.635 480.766 L 134.769 481.269 142.854 489.097 C 159.795 505.501, 184.031 512.402, 207.500 507.505 C 216.010 505.729, 230.704 498.599, 237.500 492.948 C 248.382 483.898, 256.341 471.952, 261.115 457.500 C 263.378 450.652, 263.436 449.471, 263.776 403.250 L 264.124 356 271.562 356 L 279 356 279 384.077 L 279 412.154 281.923 415.077 C 284.844 417.998, 284.856 418, 297.423 418 L 310 418 310 434.500 C 310 448.726, 309.787 451, 308.452 451 C 305.784 451, 297.540 460.178, 296.222 464.616 C 293.679 473.180, 295.265 481.074, 300.748 487.143 C 305.906 492.852, 310.662 495, 318.144 495 C 331.683 495, 341.143 485.745, 341.143 472.500 C 341.143 463.808, 336.117 455.248, 328.750 451.389 L 326 449.949 326 428.585 C 326 400.894, 327.137 402.619, 308.591 402.173 L 295 401.845 295 378.923 L 295 356 302.500 356 L 310 356 310 367.935 C 310 381.145, 310.707 384.107, 314.448 386.558 C 317.422 388.507, 321.102 387.898, 324.025 384.975 C 325.797 383.203, 326 381.609, 326 369.500 L 326 356 333.400 356 L 340.799 356 341.150 368.973 C 341.625 386.578, 341.430 386.383, 359.025 386.829 L 372 387.159 372 403.579 C 372 416.202, 371.706 420, 370.728 420 C 368.484 420, 362.006 426.068, 359.952 430.094 C 355.450 438.919, 356.532 448.757, 362.812 456.094 C 367.450 461.512, 372.900 463.950, 380.434 463.978 C 391.298 464.018, 399.514 457.813, 402.612 447.226 C 405.446 437.544, 401.038 426.451, 392.328 421.347 L 388 418.810 388 397.360 C 388 375.918, 387.999 375.908, 385.545 373.455 C 383.190 371.099, 382.563 371, 370.045 371 L 357 371 357 363.500 L 357 356 366.750 355.998 C 378.014 355.997, 382.121 354.504, 385.730 349.102 C 387.742 346.091, 388 344.470, 388 334.852 L 388 324 403.500 324 L 419 324 419 332.879 C 419 341.757, 419 341.757, 415.960 343.017 C 412.146 344.596, 406.420 351.198, 404.919 355.744 C 404.292 357.644, 403.960 362.026, 404.180 365.482 C 405.649 388.555, 437.038 394.619, 447.397 373.832 C 452.642 363.306, 449.391 350.660, 439.857 344.500 L 435.213 341.500 434.857 326.659 C 434.377 306.687, 436.204 308, 408.889 308 L 388 308 388 300.500 L 388 293 400.050 293 C 415.869 293, 419 291.512, 419 283.991 C 419 282.108, 418.109 280.444, 416.365 279.073 C 414.010 277.220, 412.366 277, 400.865 277 L 388 277 388 269.500 L 388 262 405.763 262 L 423.526 262 437.889 276.389 L 452.253 290.778 451.020 295.916 C 447.513 310.536, 458.398 324.263, 473.500 324.263 C 486.731 324.263, 496.386 314.481, 496.463 301 C 496.494 295.621, 496.011 293.668, 493.662 289.672 C 488.519 280.923, 478.055 276.475, 468.105 278.810 L 463.500 279.891 447 262.917 L 430.500 245.944 409.250 245.972 L 388 246 388 238.500 L 388 231 428 231 C 459.705 231, 468 231.264, 468 232.272 C 468 234.533, 474.081 241.001, 478.165 243.084 C 484.060 246.092, 491.050 246.634, 496.598 244.516 C 506.526 240.724, 511.939 232.998, 511.978 222.566 C 512.018 211.702, 505.813 203.486, 495.226 200.388 C 485.411 197.515, 474.519 201.846, 469.342 210.680 L 466.810 215 427.405 215 L 388 215 388 207 L 388 199 401.500 199 C 413.667 199, 415.198 198.802, 417 197 C 419.785 194.215, 419.632 188.943, 416.686 186.174 C 414.552 184.170, 413.345 184, 401.274 184 L 388.177 184 387.838 173.250 C 387.560 164.398, 387.147 162.029, 385.500 159.834 C 381.821 154.931, 378.421 153.691, 367.303 153.196 L 357 152.738 357 144.869 L 357 137 365.480 137 L 373.959 137 376.007 141.013 C 380.344 149.515, 391.714 154.274, 401.560 151.709 C 408.356 149.939, 413.372 145.901, 416.451 139.722 C 422.488 127.607, 417.776 114.064, 405.541 108.367 C 394.396 103.177, 381.335 107.535, 375.487 118.395 L 373.545 122 360.207 122 C 352.871 122, 346.045 122.441, 345.039 122.979 C 342.083 124.561, 341 129.567, 341 141.649 L 341 153 333.500 153 L 326 153 326 130 L 326 107 339.326 107 C 357.415 107, 357 107.441, 357 88.186 C 357 77.103, 357.289 74, 358.320 74 C 360.705 74, 368.234 66.694, 370.114 62.556 C 372.672 56.923, 372.586 47.842, 369.922 42.339 C 363.100 28.247, 344.021 25.339, 332.594 36.649 C 321.906 47.228, 324.783 66.257, 338.097 73.049 C 342 75.041, 342 75.041, 342 82.922 L 342 90.804 328.527 91.152 C 309.075 91.654, 310.574 88.925, 310.206 124.526 L 309.912 153 302.456 153 L 295 153 295 140.635 C 295 129.640, 294.770 127.978, 292.927 125.635 C 290.393 122.413, 285.356 122.083, 281.861 124.909 C 279.633 126.711, 279.481 127.555, 279.171 139.909 L 278.841 153 271.421 153 L 264 153 263.983 104.250 C 263.963 49.643, 263.729 47.188, 257.295 34.129 C 252.319 24.029, 241.354 12.847, 231.500 7.825 C 223.428 3.710, 220.313 2.856, 217.465 3.976 M 344.635 47.073 C 339.554 51.069, 342.269 60, 348.566 60 C 356.834 60, 359.732 49.477, 352.385 46.130 C 348.914 44.548, 347.649 44.702, 344.635 47.073 M 197.552 98.138 C 194.839 100.272, 194.835 100.293, 195.531 109.577 C 196.404 121.217, 195.083 127.151, 189.884 134.935 C 185.749 141.128, 178.222 146.962, 171.766 148.978 C 167.456 150.324, 164 154.197, 164 157.680 C 164 159.006, 165.159 161.250, 166.576 162.667 C 168.752 164.843, 169.779 165.159, 173.194 164.701 C 185.231 163.086, 200.002 151.076, 206.458 137.655 C 215.167 119.548, 212.929 96, 202.500 96 C 201.273 96, 199.047 96.962, 197.552 98.138 M 391.051 123.758 C 387.793 126.396, 387.963 131.711, 391.399 134.667 C 394.744 137.544, 396.957 137.608, 400.365 134.927 C 405.596 130.812, 402.696 122, 396.111 122 C 394.522 122, 392.245 122.791, 391.051 123.758 M 264 176.969 L 264 184.938 306.484 185.219 L 348.968 185.500 352.734 189.264 L 356.500 193.028 356.817 208.889 C 357.134 224.749, 357.134 224.749, 354.432 226.875 C 351.025 229.555, 347.996 229.571, 344.635 226.927 C 342.041 224.887, 342 224.662, 342 212.427 L 342 200 303 200 L 264 200 264 254.500 L 264 309 303 309 L 342 309 342 279.573 C 342 250.145, 342 250.145, 344.635 248.073 C 346.084 246.933, 348.273 246, 349.500 246 C 350.727 246, 352.916 246.933, 354.365 248.073 L 357 250.145 356.996 282.323 C 356.993 312.826, 356.888 314.672, 354.976 317.808 C 353.811 319.718, 351.171 321.928, 348.729 323.036 C 344.786 324.826, 341.778 324.958, 304.250 324.978 L 264 325 264 332.500 L 264 340 318.500 340 L 373 340 373 254.500 L 373 169 318.500 169 L 264 169 264 176.969 M 484.635 217.073 C 479.623 221.015, 482.253 230, 488.418 230 C 492.179 230, 493.952 228.993, 495.516 225.969 C 497.377 222.370, 495.909 217.735, 492.403 216.138 C 488.913 214.548, 487.652 214.699, 484.635 217.073 M 101.321 229.507 C 98.037 230.888, 97 232.664, 97 236.907 C 97 240.625, 100.566 243.626, 105.757 244.277 C 115.433 245.492, 122.454 252.258, 123.628 261.500 C 123.997 264.399, 125.122 267.445, 126.306 268.750 C 128.860 271.564, 133.891 271.720, 137.139 269.085 C 139.129 267.471, 139.477 266.333, 139.356 261.835 C 138.907 245.284, 125.485 230.931, 108.422 228.756 C 106.145 228.466, 103.008 228.798, 101.321 229.507 M 468.073 296.635 C 463.865 301.984, 466.825 308.400, 473.500 308.400 C 480.293 308.400, 483.543 300.738, 478.686 296.174 C 475.411 293.098, 470.694 293.302, 468.073 296.635 M 422.736 357.250 C 418.852 360.199, 418.874 366.663, 422.777 369.627 C 427.162 372.958, 434 369.205, 434 363.466 C 434 357.548, 427.250 353.823, 422.736 357.250 M 184.073 364.635 C 182.661 366.430, 181.997 368.741, 181.990 371.885 C 181.978 377.898, 178.183 385.996, 173.819 389.325 C 171.950 390.750, 167.740 392.606, 164.461 393.450 C 158.015 395.109, 155 397.731, 155 401.677 C 155 408.453, 159.984 410.878, 169.155 408.563 C 180.925 405.592, 191.883 395.660, 195.704 384.500 C 198.127 377.423, 198.071 366.847, 195.595 364.108 C 192.738 360.946, 186.759 361.220, 184.073 364.635 M 375 436 C 371.382 439.618, 372.887 446.246, 377.745 448.093 C 381.173 449.396, 385.363 447.694, 386.870 444.385 C 388.452 440.914, 388.298 439.649, 385.927 436.635 C 383.330 433.333, 377.978 433.022, 375 436 M 313 467 C 310.489 469.511, 310.353 475.107, 312.750 477.267 C 313.712 478.134, 315.726 479.150, 317.225 479.524 C 319.442 480.078, 320.532 479.622, 323.077 477.077 C 325.622 474.532, 326.078 473.442, 325.524 471.225 C 325.150 469.726, 324.134 467.712, 323.267 466.750 C 321.107 464.353, 315.511 464.489, 313 467" stroke="none" fill="#eead05" fill-rule="evenodd"/><path d="" stroke="none" fill="#FFFFFF" fill-rule="evenodd"/></svg>