<?xml version="1.0" encoding="UTF-8"?>
<!DOCTYPE svg PUBLIC "-//W3C//DTD SVG 1.1//EN" "http://www.w3.org/Graphics/SVG/1.1/DTD/svg11.dtd">
<svg xmlns="http://www.w3.org/2000/svg" version="1.1" width="360px" height="360px" style="shape-rendering:geometricPrecision; text-rendering:geometricPrecision; image-rendering:optimizeQuality; fill-rule:evenodd; clip-rule:evenodd" xmlns:xlink="http://www.w3.org/1999/xlink">
<g><path style="opacity:0.835" fill="#3464db" d="M 167.5,28.5 C 175.656,27.3434 183.99,27.1768 192.5,28C 196.528,29.2123 199.862,31.379 202.5,34.5C 202.167,34.5 201.833,34.5 201.5,34.5C 198.656,32.0212 195.322,30.3545 191.5,29.5C 183.528,28.5023 175.528,28.169 167.5,28.5 Z"/></g>
<g><path style="opacity:1" fill="#2166fc" d="M 167.5,28.5 C 175.528,28.169 183.528,28.5023 191.5,29.5C 195.322,30.3545 198.656,32.0212 201.5,34.5C 200.952,36.3936 199.952,38.0603 198.5,39.5C 197.522,39.0233 196.689,38.3567 196,37.5C 195.632,38.91 194.799,39.91 193.5,40.5C 193.245,38.6565 193.078,36.6565 193,34.5C 192.066,35.8584 191.232,37.1917 190.5,38.5C 183.5,38.5 176.5,38.5 169.5,38.5C 169.02,35.3148 169.686,32.4815 171.5,30C 169.942,29.79 168.609,29.29 167.5,28.5 Z"/></g>
<g><path style="opacity:1" fill="#2466f6" d="M 167.5,28.5 C 168.609,29.29 169.942,29.79 171.5,30C 169.686,32.4815 169.02,35.3148 169.5,38.5C 168.662,38.8417 168.328,39.5084 168.5,40.5C 167.167,41.1667 166.167,42.1667 165.5,43.5C 165.167,43.5 164.833,43.5 164.5,43.5C 164.063,41.9256 163.063,40.7589 161.5,40C 162.609,38.187 161.942,37.3537 159.5,37.5C 159.657,38.8734 159.49,40.2068 159,41.5C 157.615,42.5505 156.615,43.8839 156,45.5C 155.259,44.3595 154.425,44.3595 153.5,45.5C 152.583,50.425 151.25,55.0916 149.5,59.5C 150.127,51.5282 151.96,43.8616 155,36.5C 158.034,31.9489 162.201,29.2823 167.5,28.5 Z"/></g>
<g><path style="opacity:0.471" fill="#3466d5" d="M 169.5,38.5 C 176.5,38.5 183.5,38.5 190.5,38.5C 190.5,38.8333 190.5,39.1667 190.5,39.5C 183.08,39.2027 175.746,39.536 168.5,40.5C 168.328,39.5084 168.662,38.8417 169.5,38.5 Z"/></g>
<g><path style="opacity:1" fill="#2c62f9" d="M 164.5,43.5 C 162.423,50.2262 161.089,57.2262 160.5,64.5C 159.682,71.4965 156.015,76.1631 149.5,78.5C 148.665,77.0568 147.332,76.0568 145.5,75.5C 147.173,73.4775 147.84,71.1441 147.5,68.5C 146.448,68.3505 145.448,68.5172 144.5,69C 144.833,69.3333 145.167,69.6667 145.5,70C 142.854,70.4974 140.187,70.6641 137.5,70.5C 141.399,69.3518 144.899,67.3518 148,64.5C 148.608,62.8455 149.108,61.1789 149.5,59.5C 151.25,55.0916 152.583,50.425 153.5,45.5C 154.425,44.3595 155.259,44.3595 156,45.5C 156.615,43.8839 157.615,42.5505 159,41.5C 159.49,40.2068 159.657,38.8734 159.5,37.5C 161.942,37.3537 162.609,38.187 161.5,40C 163.063,40.7589 164.063,41.9256 164.5,43.5 Z"/></g>
<g><path style="opacity:1" fill="#2964f3" d="M 201.5,34.5 C 201.833,34.5 202.167,34.5 202.5,34.5C 204.64,36.7005 206.14,39.3672 207,42.5C 207.748,47.4814 208.248,52.4814 208.5,57.5C 207.778,57.0825 207.278,56.4158 207,55.5C 206.667,51.8333 206.333,48.1667 206,44.5C 205.667,46.8333 205.333,49.1667 205,51.5C 201.846,51.6821 200.18,53.6821 200,57.5C 199.667,56.8333 199.333,56.1667 199,55.5C 198.585,59.848 198.751,64.1813 199.5,68.5C 197.578,61.0551 196.078,53.3884 195,45.5C 194.021,43.0324 192.521,41.0324 190.5,39.5C 190.5,39.1667 190.5,38.8333 190.5,38.5C 191.232,37.1917 192.066,35.8584 193,34.5C 193.078,36.6565 193.245,38.6565 193.5,40.5C 194.799,39.91 195.632,38.91 196,37.5C 196.689,38.3567 197.522,39.0233 198.5,39.5C 199.952,38.0603 200.952,36.3936 201.5,34.5 Z"/></g>
<g><path style="opacity:0.369" fill="#3e62cd" d="M 164.5,43.5 C 164.833,43.5 165.167,43.5 165.5,43.5C 163.932,50.6124 162.265,57.6124 160.5,64.5C 161.089,57.2262 162.423,50.2262 164.5,43.5 Z"/></g>
<g><path style="opacity:1" fill="#2e5ff5" d="M 208.5,57.5 C 209.155,60.8286 210.488,63.9953 212.5,67C 217.833,69 223.167,71 228.5,73C 230.584,73.6972 232.251,74.8639 233.5,76.5C 229.341,74.8759 225.007,73.7093 220.5,73C 215.774,69.8115 210.94,67.3115 206,65.5C 205.355,66.646 204.522,67.646 203.5,68.5C 206.353,70.8868 206.686,73.2202 204.5,75.5C 202.1,73.7036 200.433,71.3702 199.5,68.5C 198.751,64.1813 198.585,59.848 199,55.5C 199.333,56.1667 199.667,56.8333 200,57.5C 200.18,53.6821 201.846,51.6821 205,51.5C 205.333,49.1667 205.667,46.8333 206,44.5C 206.333,48.1667 206.667,51.8333 207,55.5C 207.278,56.4158 207.778,57.0825 208.5,57.5 Z"/></g>
<g><path style="opacity:1" fill="#345ff4" d="M 123.5,76.5 C 124.64,77.8014 125.973,78.9681 127.5,80C 124.808,80.4298 122.141,80.2631 119.5,79.5C 119.5,78.5 119.5,77.5 119.5,76.5C 116.402,76.4125 116.068,76.9125 118.5,78C 117.5,78.3333 116.5,78.6667 115.5,79C 115.982,80.0084 116.148,81.175 116,82.5C 119.097,83.2893 119.264,84.456 116.5,86C 120.821,86.499 125.154,86.6657 129.5,86.5C 127.71,87.9973 125.544,88.664 123,88.5C 118.598,88.4233 114.764,87.09 111.5,84.5C 112.552,84.6495 113.552,84.4828 114.5,84C 110.607,80.1479 110.941,77.4812 115.5,76C 112.669,73.8384 110.002,71.5051 107.5,69C 106.5,68.3333 105.5,68.3333 104.5,69C 102.139,70.6686 99.8055,72.3352 97.5,74C 98.756,74.4169 99.4226,75.2502 99.5,76.5C 96.7444,73.802 93.4111,72.4687 89.5,72.5C 87.0637,72.317 84.897,72.9837 83,74.5C 81.6319,73.0069 81.4652,71.5069 82.5,70C 81.5,69 80.5,68 79.5,67C 81.0414,65.6288 82.3747,64.1288 83.5,62.5C 88.3078,60.117 93.3078,59.9503 98.5,62C 104.844,65.5038 110.844,69.5038 116.5,74C 118.65,75.4114 120.984,76.2447 123.5,76.5 Z"/></g>
<g><path style="opacity:1" fill="#345ef9" d="M 111.5,84.5 C 107.148,82.3265 103.148,79.6599 99.5,76.5C 99.4226,75.2502 98.756,74.4169 97.5,74C 99.8055,72.3352 102.139,70.6686 104.5,69C 105.5,68.3333 106.5,68.3333 107.5,69C 110.002,71.5051 112.669,73.8384 115.5,76C 110.941,77.4812 110.607,80.1479 114.5,84C 113.552,84.4828 112.552,84.6495 111.5,84.5 Z"/></g>
<g><path style="opacity:1" fill="#355efb" d="M 149.5,78.5 C 143.617,78.5665 137.95,79.7332 132.5,82C 132.957,82.414 133.291,82.914 133.5,83.5C 131.668,84.0568 130.335,85.0568 129.5,86.5C 125.154,86.6657 120.821,86.499 116.5,86C 119.264,84.456 119.097,83.2893 116,82.5C 116.148,81.175 115.982,80.0084 115.5,79C 116.5,78.6667 117.5,78.3333 118.5,78C 116.068,76.9125 116.402,76.4125 119.5,76.5C 119.5,77.5 119.5,78.5 119.5,79.5C 122.141,80.2631 124.808,80.4298 127.5,80C 125.973,78.9681 124.64,77.8014 123.5,76.5C 128.008,74.324 132.675,72.324 137.5,70.5C 140.187,70.6641 142.854,70.4974 145.5,70C 145.167,69.6667 144.833,69.3333 144.5,69C 145.448,68.5172 146.448,68.3505 147.5,68.5C 147.84,71.1441 147.173,73.4775 145.5,75.5C 147.332,76.0568 148.665,77.0568 149.5,78.5 Z"/></g>
<g><path style="opacity:1" fill="#345ef4" d="M 280.5,66.5 C 279.127,66.3433 277.793,66.51 276.5,67C 276.833,67.3333 277.167,67.6667 277.5,68C 276.692,68.3076 276.025,68.8076 275.5,69.5C 275.694,71.0701 275.694,72.5701 275.5,74C 278.167,74.6667 278.167,75.3333 275.5,76C 278.072,76.4315 279.406,77.9315 279.5,80.5C 276.681,78.5812 274.014,76.4145 271.5,74C 268.833,73.3333 266.167,73.3333 263.5,74C 258.471,77.5097 253.471,81.0097 248.5,84.5C 247.395,82.7769 245.728,81.7769 243.5,81.5C 243.53,80.5028 243.03,79.8361 242,79.5C 239.865,78.8729 237.698,78.3729 235.5,78C 234.944,77.6174 234.611,77.1174 234.5,76.5C 236.199,76.6602 237.866,76.4935 239.5,76C 245.779,72.054 251.779,67.7206 257.5,63C 266.107,58.8644 273.774,60.0311 280.5,66.5 Z"/></g>
<g><path style="opacity:1" fill="#355ef6" d="M 280.5,66.5 C 285.105,69.4357 289.105,73.1024 292.5,77.5C 290.259,78.2998 289.259,79.9664 289.5,82.5C 288.178,82.67 287.011,82.3366 286,81.5C 284.559,83.3049 284.392,85.3049 285.5,87.5C 282.757,85.7607 280.757,83.4274 279.5,80.5C 279.406,77.9315 278.072,76.4315 275.5,76C 278.167,75.3333 278.167,74.6667 275.5,74C 275.694,72.5701 275.694,71.0701 275.5,69.5C 276.025,68.8076 276.692,68.3076 277.5,68C 277.167,67.6667 276.833,67.3333 276.5,67C 277.793,66.51 279.127,66.3433 280.5,66.5 Z"/></g>
<g><path style="opacity:1" fill="#355df0" d="M 83.5,62.5 C 82.3747,64.1288 81.0414,65.6288 79.5,67C 80.5,68 81.5,69 82.5,70C 81.4652,71.5069 81.6319,73.0069 83,74.5C 84.897,72.9837 87.0637,72.317 89.5,72.5C 82.8333,77.1667 77.1667,82.8333 72.5,89.5C 73.1383,87.54 73.1383,85.7067 72.5,84C 73.2551,81.8669 74.5884,80.2002 76.5,79C 74.8374,78.7351 73.3374,79.2351 72,80.5C 70.4878,79.7433 69.1545,78.7433 68,77.5C 65.9045,78.7155 66.0712,79.5488 68.5,80C 65.6831,82.6473 65.3498,85.314 67.5,88C 67.1667,88.8333 66.8333,89.6667 66.5,90.5C 65.9149,88.1352 64.7482,86.1352 63,84.5C 62.5804,88.1914 62.0804,91.8581 61.5,95.5C 60.1671,90.8039 60.6671,86.1372 63,81.5C 68.7696,73.8924 75.603,67.5591 83.5,62.5 Z"/></g>
<g><path style="opacity:1" fill="#3560fd" d="M 233.5,76.5 C 233.833,76.5 234.167,76.5 234.5,76.5C 234.611,77.1174 234.944,77.6174 235.5,78C 237.698,78.3729 239.865,78.8729 242,79.5C 243.03,79.8361 243.53,80.5028 243.5,81.5C 242.929,82.9733 242.929,84.64 243.5,86.5C 239.486,86.6655 235.486,86.4988 231.5,86C 229.893,84.951 229.227,83.451 229.5,81.5C 227.266,81.3801 225.099,81.7135 223,82.5C 218.964,80.6188 214.797,79.2854 210.5,78.5C 210.649,77.448 210.483,76.448 210,75.5C 208.989,76.3366 207.822,76.67 206.5,76.5C 205.833,76.1667 205.167,75.8333 204.5,75.5C 206.686,73.2202 206.353,70.8868 203.5,68.5C 204.522,67.646 205.355,66.646 206,65.5C 210.94,67.3115 215.774,69.8115 220.5,73C 225.007,73.7093 229.341,74.8759 233.5,76.5 Z"/></g>
<g><path style="opacity:1" fill="#395dde" d="M 149.5,78.5 C 142.89,81.1322 136.224,83.7988 129.5,86.5C 130.335,85.0568 131.668,84.0568 133.5,83.5C 133.291,82.914 132.957,82.414 132.5,82C 137.95,79.7332 143.617,78.5665 149.5,78.5 Z"/></g>
<g><path style="opacity:1" fill="#3b5ce1" d="M 243.5,81.5 C 245.728,81.7769 247.395,82.7769 248.5,84.5C 243.8,88.0876 238.467,89.2543 232.5,88C 223.49,84.6207 214.823,80.7873 206.5,76.5C 207.822,76.67 208.989,76.3366 210,75.5C 210.483,76.448 210.649,77.448 210.5,78.5C 214.797,79.2854 218.964,80.6188 223,82.5C 225.099,81.7135 227.266,81.3801 229.5,81.5C 229.227,83.451 229.893,84.951 231.5,86C 235.486,86.4988 239.486,86.6655 243.5,86.5C 242.929,84.64 242.929,82.9733 243.5,81.5 Z"/></g>
<g><path style="opacity:1" fill="#3a5cfd" d="M 72.5,89.5 C 70.3131,91.2818 69.9797,93.4485 71.5,96C 70.6721,96.9147 69.6721,97.5814 68.5,98C 69.8692,100.239 69.3692,102.073 67,103.5C 65.6177,100.695 63.7844,98.3612 61.5,96.5C 61.5,96.1667 61.5,95.8333 61.5,95.5C 62.0804,91.8581 62.5804,88.1914 63,84.5C 64.7482,86.1352 65.9149,88.1352 66.5,90.5C 66.8333,89.6667 67.1667,88.8333 67.5,88C 65.3498,85.314 65.6831,82.6473 68.5,80C 66.0712,79.5488 65.9045,78.7155 68,77.5C 69.1545,78.7433 70.4878,79.7433 72,80.5C 73.3374,79.2351 74.8374,78.7351 76.5,79C 74.5884,80.2002 73.2551,81.8669 72.5,84C 73.1383,85.7067 73.1383,87.54 72.5,89.5 Z"/></g>
<g><path style="opacity:1" fill="#78c0fa" d="M 218.5,91.5 C 218.67,92.8221 218.337,93.9887 217.5,95C 218.308,95.3076 218.975,95.8076 219.5,96.5C 217.345,97.9278 215.179,98.2611 213,97.5C 212.632,98.91 211.799,99.91 210.5,100.5C 207.675,99.6168 205.008,98.4502 202.5,97C 199.183,96.5017 195.85,96.335 192.5,96.5C 186.247,95.518 180.081,95.1847 174,95.5C 167.762,96.5101 161.595,97.8435 155.5,99.5C 151.03,97.993 146.53,96.993 142,96.5C 141.86,92.6274 143.693,90.294 147.5,89.5C 151.022,87.0499 155.022,85.7166 159.5,85.5C 159.414,86.4959 159.748,87.3292 160.5,88C 165.152,88.9709 169.652,90.4709 174,92.5C 179.416,91.3611 184.916,91.1944 190.5,92C 191.424,93.4892 192.424,93.6559 193.5,92.5C 191.777,90.1324 191.11,87.4658 191.5,84.5C 186.156,84.334 180.823,84.5006 175.5,85C 178.279,85.1492 178.779,85.9826 177,87.5C 171.055,86.4937 171.055,86.8271 177,88.5C 178.412,87.0773 179.579,87.244 180.5,89C 176.57,90.1382 173.236,89.3049 170.5,86.5C 167.232,85.513 163.898,85.1796 160.5,85.5C 180.364,81.3674 199.697,83.3674 218.5,91.5 Z"/></g>
<g><path style="opacity:1" fill="#75c2fe" d="M 159.5,85.5 C 159.833,85.5 160.167,85.5 160.5,85.5C 163.898,85.1796 167.232,85.513 170.5,86.5C 173.236,89.3049 176.57,90.1382 180.5,89C 179.579,87.244 178.412,87.0773 177,88.5C 171.055,86.8271 171.055,86.4937 177,87.5C 178.779,85.9826 178.279,85.1492 175.5,85C 180.823,84.5006 186.156,84.334 191.5,84.5C 191.11,87.4658 191.777,90.1324 193.5,92.5C 192.424,93.6559 191.424,93.4892 190.5,92C 184.916,91.1944 179.416,91.3611 174,92.5C 169.652,90.4709 165.152,88.9709 160.5,88C 159.748,87.3292 159.414,86.4959 159.5,85.5 Z"/></g>
<g><path style="opacity:1" fill="#3b5bf8" d="M 292.5,77.5 C 294.588,79.3356 295.921,81.6689 296.5,84.5C 296.765,90.6401 296.098,96.6401 294.5,102.5C 291.883,107.114 288.883,111.447 285.5,115.5C 285.461,114.417 285.127,113.417 284.5,112.5C 285.167,111.833 285.833,111.167 286.5,110.5C 284.928,106.063 285.928,105.063 289.5,107.5C 290.988,103.79 289.655,101.623 285.5,101C 285.833,100.667 286.167,100.333 286.5,100C 285.072,99.4209 283.738,99.5876 282.5,100.5C 284.079,97.67 285.412,94.67 286.5,91.5C 285.754,90.2638 285.421,88.9305 285.5,87.5C 284.392,85.3049 284.559,83.3049 286,81.5C 287.011,82.3366 288.178,82.67 289.5,82.5C 289.259,79.9664 290.259,78.2998 292.5,77.5 Z"/></g>
<g><path style="opacity:1" fill="#3d57d3" d="M 296.5,84.5 C 298.412,88.1936 298.912,92.1936 298,96.5C 297.576,99.0254 296.41,101.025 294.5,102.5C 296.098,96.6401 296.765,90.6401 296.5,84.5 Z"/></g>
<g><path style="opacity:1" fill="#7bbff7" d="M 147.5,89.5 C 143.693,90.294 141.86,92.6274 142,96.5C 146.53,96.993 151.03,97.993 155.5,99.5C 139.781,104.562 126.448,113.229 115.5,125.5C 115.586,124.504 115.252,123.671 114.5,123C 122.807,117.84 122.474,113.674 113.5,110.5C 122.789,100.215 134.122,93.2154 147.5,89.5 Z"/></g>
<g><path style="opacity:1" fill="#7cbff6" d="M 218.5,91.5 C 226.659,95.0165 233.993,99.6831 240.5,105.5C 238.179,105.342 236.346,104.342 235,102.5C 233.622,104.213 231.955,105.547 230,106.5C 228.512,104.733 227.012,104.399 225.5,105.5C 226.376,106.251 227.376,106.751 228.5,107C 227.663,108.011 227.33,109.178 227.5,110.5C 216.729,103.468 205.062,98.8013 192.5,96.5C 195.85,96.335 199.183,96.5017 202.5,97C 205.008,98.4502 207.675,99.6168 210.5,100.5C 211.799,99.91 212.632,98.91 213,97.5C 215.179,98.2611 217.345,97.9278 219.5,96.5C 218.975,95.8076 218.308,95.3076 217.5,95C 218.337,93.9887 218.67,92.8221 218.5,91.5 Z"/></g>
<g><path style="opacity:0.997" fill="#4358f0" d="M 72.5,89.5 C 72.372,91.6547 72.872,93.6547 74,95.5C 78.1419,100.463 81.6419,105.796 84.5,111.5C 82.3935,110.434 80.8935,108.767 80,106.5C 79.6924,107.308 79.1924,107.975 78.5,108.5C 77.3064,105.381 75.8064,105.048 74,107.5C 73.5983,108.872 73.0983,110.205 72.5,111.5C 73.5217,112.354 74.3551,113.354 75,114.5C 75.3333,114.167 75.6667,113.833 76,113.5C 76.7714,116.346 77.6047,119.18 78.5,122C 78.1997,124.944 76.8663,127.111 74.5,128.5C 76.8074,124.934 76.9741,121.268 75,117.5C 69.4813,111.123 64.9813,104.123 61.5,96.5C 63.7844,98.3612 65.6177,100.695 67,103.5C 69.3692,102.073 69.8692,100.239 68.5,98C 69.6721,97.5814 70.6721,96.9147 71.5,96C 69.9797,93.4485 70.3131,91.2818 72.5,89.5 Z"/></g>
<g><path style="opacity:1" fill="#7ec0fa" d="M 240.5,105.5 C 247.236,109.901 252.57,115.568 256.5,122.5C 255.206,121.71 254.039,120.71 253,119.5C 253.263,120.951 253.096,122.284 252.5,123.5C 250.754,121.146 248.421,120.146 245.5,120.5C 245.286,122.144 245.62,123.644 246.5,125C 245.956,125.717 245.289,126.217 244.5,126.5C 239.463,120.462 233.797,115.129 227.5,110.5C 227.33,109.178 227.663,108.011 228.5,107C 227.376,106.751 226.376,106.251 225.5,105.5C 227.012,104.399 228.512,104.733 230,106.5C 231.955,105.547 233.622,104.213 235,102.5C 236.346,104.342 238.179,105.342 240.5,105.5 Z"/></g>
<g><path style="opacity:1" fill="#4656f5" d="M 285.5,115.5 C 284.259,117.568 283.259,119.735 282.5,122C 283.367,124.896 284.367,127.729 285.5,130.5C 284.5,130.5 283.5,130.5 282.5,130.5C 282.653,127.423 281.986,124.589 280.5,122C 281.726,116.728 279.726,114.561 274.5,115.5C 274.878,113.079 275.545,110.746 276.5,108.5C 278.016,105.467 280.016,102.8 282.5,100.5C 283.738,99.5876 285.072,99.4209 286.5,100C 286.167,100.333 285.833,100.667 285.5,101C 289.655,101.623 290.988,103.79 289.5,107.5C 285.928,105.063 284.928,106.063 286.5,110.5C 285.833,111.167 285.167,111.833 284.5,112.5C 285.127,113.417 285.461,114.417 285.5,115.5 Z"/></g>
<g><path style="opacity:1" fill="#4757d0" d="M 276.5,108.5 C 275.545,110.746 274.878,113.079 274.5,115.5C 273.883,115.611 273.383,115.944 273,116.5C 272.501,120.821 272.334,125.154 272.5,129.5C 269.044,121.63 270.377,114.63 276.5,108.5 Z"/></g>
<g><path style="opacity:1" fill="#5256d6" d="M 85.5,112.5 C 89.4293,119.183 89.4293,125.85 85.5,132.5C 86.5207,126.87 86.6873,121.204 86,115.5C 85.2825,116.451 84.4491,116.617 83.5,116C 84.0848,114.698 84.7515,113.531 85.5,112.5 Z"/></g>
<g><path style="opacity:1" fill="#84bef9" d="M 113.5,110.5 C 122.474,113.674 122.807,117.84 114.5,123C 115.252,123.671 115.586,124.504 115.5,125.5C 112.469,129.524 109.469,133.524 106.5,137.5C 106.519,135.94 106.852,134.44 107.5,133C 106.99,131.174 106.156,131.007 105,132.5C 102.266,131.638 102.099,130.805 104.5,130C 103.167,129.333 101.833,128.667 100.5,128C 101.938,127.781 103.271,127.281 104.5,126.5C 103.147,125.476 102.48,124.143 102.5,122.5C 105.508,117.828 109.175,113.828 113.5,110.5 Z"/></g>
<g><path style="opacity:1" fill="#4e53fb" d="M 84.5,111.5 C 85.1667,111.5 85.5,111.833 85.5,112.5C 84.7515,113.531 84.0848,114.698 83.5,116C 84.4491,116.617 85.2825,116.451 86,115.5C 86.6873,121.204 86.5207,126.87 85.5,132.5C 83.5879,134.657 81.9213,136.991 80.5,139.5C 80.631,138.761 80.4643,138.094 80,137.5C 77.3661,139.594 74.5328,139.927 71.5,138.5C 70.9348,140.544 69.9348,142.21 68.5,143.5C 69.7042,138.105 71.7042,133.105 74.5,128.5C 76.8663,127.111 78.1997,124.944 78.5,122C 77.6047,119.18 76.7714,116.346 76,113.5C 75.6667,113.833 75.3333,114.167 75,114.5C 74.3551,113.354 73.5217,112.354 72.5,111.5C 73.0983,110.205 73.5983,108.872 74,107.5C 75.8064,105.048 77.3064,105.381 78.5,108.5C 79.1924,107.975 79.6924,107.308 80,106.5C 80.8935,108.767 82.3935,110.434 84.5,111.5 Z"/></g>
<g><path style="opacity:1" fill="#5053fb" d="M 285.5,130.5 C 285.622,134.464 286.622,138.131 288.5,141.5C 285.377,139.885 282.044,138.885 278.5,138.5C 278.5,140.167 278.5,141.833 278.5,143.5C 275.988,139.134 273.988,134.467 272.5,129.5C 272.334,125.154 272.501,120.821 273,116.5C 273.383,115.944 273.883,115.611 274.5,115.5C 279.726,114.561 281.726,116.728 280.5,122C 281.986,124.589 282.653,127.423 282.5,130.5C 283.5,130.5 284.5,130.5 285.5,130.5 Z"/></g>
<g><path style="opacity:1" fill="#8bbcf8" d="M 256.5,122.5 C 259.241,124.975 261.241,127.975 262.5,131.5C 257.83,135.225 257.163,139.725 260.5,145C 259.66,146.666 260.16,146.833 262,145.5C 262.464,146.094 262.631,146.761 262.5,147.5C 263.128,151.491 261.795,152.824 258.5,151.5C 255.114,142.39 250.448,134.057 244.5,126.5C 245.289,126.217 245.956,125.717 246.5,125C 245.62,123.644 245.286,122.144 245.5,120.5C 248.421,120.146 250.754,121.146 252.5,123.5C 253.096,122.284 253.263,120.951 253,119.5C 254.039,120.71 255.206,121.71 256.5,122.5 Z"/></g>
<g><path style="opacity:0.796" fill="#5956cc" d="M 85.5,132.5 C 84.0698,136.354 82.4031,140.021 80.5,143.5C 80.5,142.167 80.5,140.833 80.5,139.5C 81.9213,136.991 83.5879,134.657 85.5,132.5 Z"/></g>
<g><path style="opacity:1" fill="#5d4cf6" d="M 80.5,139.5 C 80.5,140.833 80.5,142.167 80.5,143.5C 79.465,151.596 75.1316,156.93 67.5,159.5C 67.1257,155.79 65.459,152.79 62.5,150.5C 61.8333,151.167 61.1667,151.833 60.5,152.5C 59.1585,150.995 57.4918,150.328 55.5,150.5C 60.961,150.237 65.2943,147.904 68.5,143.5C 69.9348,142.21 70.9348,140.544 71.5,138.5C 74.5328,139.927 77.3661,139.594 80,137.5C 80.4643,138.094 80.631,138.761 80.5,139.5 Z"/></g>
<g><path style="opacity:1" fill="#544ed6" d="M 285.5,130.5 C 288.068,135.525 290.068,140.859 291.5,146.5C 289.75,145.341 288.75,143.674 288.5,141.5C 286.622,138.131 285.622,134.464 285.5,130.5 Z"/></g>
<g><path style="opacity:1" fill="#92b9fb" d="M 262.5,131.5 C 265.537,136.918 268.203,142.584 270.5,148.5C 269.686,150.631 269.186,152.964 269,155.5C 268.667,154.833 268.333,154.167 268,153.5C 267.667,154.833 267.333,156.167 267,157.5C 264.802,154.378 263.302,151.045 262.5,147.5C 262.631,146.761 262.464,146.094 262,145.5C 260.16,146.833 259.66,146.666 260.5,145C 257.163,139.725 257.83,135.225 262.5,131.5 Z"/></g>
<g><path style="opacity:1" fill="#5d4bfc" d="M 288.5,141.5 C 288.75,143.674 289.75,145.341 291.5,146.5C 291.573,149.068 291.906,151.734 292.5,154.5C 294.373,153.911 296.04,154.578 297.5,156.5C 296.726,157.711 295.893,157.711 295,156.5C 294.283,157.044 293.783,157.711 293.5,158.5C 292.448,158.649 291.448,158.483 290.5,158C 291.654,157.086 291.487,156.253 290,155.5C 289.439,156.022 288.772,156.355 288,156.5C 286.594,155.586 285.094,154.92 283.5,154.5C 283.167,153.833 282.833,153.167 282.5,152.5C 281.821,149.161 280.488,146.161 278.5,143.5C 278.5,141.833 278.5,140.167 278.5,138.5C 282.044,138.885 285.377,139.885 288.5,141.5 Z"/></g>
<g><path style="opacity:0.999" fill="#92bbfa" d="M 102.5,122.5 C 102.48,124.143 103.147,125.476 104.5,126.5C 103.271,127.281 101.938,127.781 100.5,128C 101.833,128.667 103.167,129.333 104.5,130C 102.099,130.805 102.266,131.638 105,132.5C 106.156,131.007 106.99,131.174 107.5,133C 106.852,134.44 106.519,135.94 106.5,137.5C 104.066,144.022 101.4,150.355 98.5,156.5C 97.1667,156.5 96.5,157.167 96.5,158.5C 95.7515,157.469 95.0848,156.302 94.5,155C 94.8333,154.667 95.1667,154.333 95.5,154C 93.9562,154.487 92.2895,154.987 90.5,155.5C 90.9465,152.99 90.2798,150.99 88.5,149.5C 90.8087,139.214 95.4753,130.214 102.5,122.5 Z"/></g>
<g><path style="opacity:0.8" fill="#5c4fcd" d="M 278.5,143.5 C 280.488,146.161 281.821,149.161 282.5,152.5C 280.026,150.102 278.692,147.102 278.5,143.5 Z"/></g>
<g><path style="opacity:1" fill="#5e4cfa" d="M 174.5,147.5 C 184.658,146.341 194.992,146.175 205.5,147C 207.853,147.713 209.853,148.879 211.5,150.5C 211.688,152.103 211.188,153.437 210,154.5C 209.667,152.833 209.333,151.167 209,149.5C 208.088,151.659 207.255,153.825 206.5,156C 199.321,156.171 192.321,156.671 185.5,157.5C 185.5,164.167 185.5,170.833 185.5,177.5C 184.508,170.352 184.175,163.019 184.5,155.5C 182.61,155.703 181.11,155.037 180,153.5C 178.774,155.548 177.274,155.881 175.5,154.5C 175.802,151.941 175.468,149.607 174.5,147.5 Z"/></g>
<g><path style="opacity:1" fill="#5e4bec" d="M 156.5,167.5 C 154.875,164.109 153.875,160.442 153.5,156.5C 152.699,154.958 152.366,153.292 152.5,151.5C 149.957,150.643 147.623,149.31 145.5,147.5C 141.555,146.509 137.555,146.176 133.5,146.5C 133.67,147.822 133.337,148.989 132.5,150C 133.667,150.5 134.5,151.333 135,152.5C 135.483,151.552 135.649,150.552 135.5,149.5C 136.5,149.5 137.5,149.5 138.5,149.5C 139.778,150.791 140.445,152.791 140.5,155.5C 138.599,155.433 136.766,155.767 135,156.5C 133.265,155.318 132.265,153.651 132,151.5C 131.503,154.55 130.003,155.55 127.5,154.5C 127.094,157.939 126.094,160.939 124.5,163.5C 124.407,147.778 132.074,141.945 147.5,146C 150.583,146.786 152.749,148.619 154,151.5C 155.253,156.773 156.087,162.106 156.5,167.5 Z"/></g>
<g><path style="opacity:1" fill="#6249f3" d="M 291.5,146.5 C 292.882,147.801 294.548,148.634 296.5,149C 305.232,150.213 313.565,151.88 321.5,154C 326.231,156.956 329.398,161.123 331,166.5C 331.823,175.01 331.657,183.344 330.5,191.5C 330.933,182.039 330.267,172.706 328.5,163.5C 326.533,163.739 324.699,163.406 323,162.5C 321.956,163.623 321.29,164.956 321,166.5C 320.807,177.489 320.14,188.156 319,198.5C 318.25,197.874 317.416,197.374 316.5,197C 312.848,196.501 309.182,196.335 305.5,196.5C 316.861,196.288 321.527,190.454 319.5,179C 321.501,167.835 316.834,162.335 305.5,162.5C 301.753,160.93 297.753,159.596 293.5,158.5C 293.783,157.711 294.283,157.044 295,156.5C 295.893,157.711 296.726,157.711 297.5,156.5C 296.04,154.578 294.373,153.911 292.5,154.5C 291.906,151.734 291.573,149.068 291.5,146.5 Z"/></g>
<g><path style="opacity:1" fill="#614afd" d="M 55.5,150.5 C 57.4918,150.328 59.1585,150.995 60.5,152.5C 61.1667,151.833 61.8333,151.167 62.5,150.5C 65.459,152.79 67.1257,155.79 67.5,159.5C 64.1933,160.051 60.8599,160.384 57.5,160.5C 53.1743,160.182 49.1743,158.848 45.5,156.5C 46.8333,155.5 46.8333,154.5 45.5,153.5C 48.4465,152.679 51.4465,152.179 54.5,152C 55.056,151.617 55.3893,151.117 55.5,150.5 Z"/></g>
<g><path style="opacity:1" fill="#9dbafa" d="M 88.5,149.5 C 90.2798,150.99 90.9465,152.99 90.5,155.5C 92.2895,154.987 93.9562,154.487 95.5,154C 95.1667,154.333 94.8333,154.667 94.5,155C 95.0848,156.302 95.7515,157.469 96.5,158.5C 96.8364,162.167 96.003,165.5 94,168.5C 93.3333,167.167 92.6667,165.833 92,164.5C 91.3162,165.784 91.4829,166.951 92.5,168C 92,168.5 91.5,169 91,169.5C 90.3333,168.167 89.6667,168.167 89,169.5C 88.3828,168.551 88.5494,167.718 89.5,167C 87.4546,166.51 85.4546,166.677 83.5,167.5C 84.2492,161.161 85.9158,155.161 88.5,149.5 Z"/></g>
<g><path style="opacity:1" fill="#6547fc" d="M 185.5,177.5 C 185.409,179.698 186.075,180.031 187.5,178.5C 187.5,179.167 187.5,179.833 187.5,180.5C 185.057,181.603 182.057,182.269 178.5,182.5C 177.5,182.5 176.5,182.5 175.5,182.5C 175.5,173.167 175.5,163.833 175.5,154.5C 177.274,155.881 178.774,155.548 180,153.5C 181.11,155.037 182.61,155.703 184.5,155.5C 184.175,163.019 184.508,170.352 185.5,177.5 Z"/></g>
<g><path style="opacity:1" fill="#9bbaf7" d="M 262.5,147.5 C 263.302,151.045 264.802,154.378 267,157.5C 267.333,156.167 267.667,154.833 268,153.5C 268.333,154.167 268.667,154.833 269,155.5C 269.186,152.964 269.686,150.631 270.5,148.5C 272.579,153.873 273.912,159.539 274.5,165.5C 273.438,167.879 272.105,167.879 270.5,165.5C 269.062,163.401 268.395,161.401 268.5,159.5C 266.096,163.583 264.43,167.583 263.5,171.5C 262.358,164.82 260.692,158.153 258.5,151.5C 261.795,152.824 263.128,151.491 262.5,147.5 Z"/></g>
<g><path style="opacity:1" fill="#6049f4" d="M 55.5,150.5 C 55.3893,151.117 55.056,151.617 54.5,152C 51.4465,152.179 48.4465,152.679 45.5,153.5C 46.8333,154.5 46.8333,155.5 45.5,156.5C 49.1743,158.848 53.1743,160.182 57.5,160.5C 54.1667,161.5 50.8333,162.5 47.5,163.5C 44.8252,164.103 42.4918,165.436 40.5,167.5C 39.9515,165.313 38.7848,164.646 37,165.5C 34.9681,163.696 32.8015,163.196 30.5,164C 29.9152,165.302 29.2485,166.469 28.5,167.5C 30.3132,158.855 35.6466,153.689 44.5,152C 48.1135,151.064 51.7802,150.564 55.5,150.5 Z"/></g>
<g><path style="opacity:1" fill="#5b46da" d="M 283.5,154.5 C 285.094,154.92 286.594,155.586 288,156.5C 288.772,156.355 289.439,156.022 290,155.5C 291.487,156.253 291.654,157.086 290.5,158C 291.448,158.483 292.448,158.649 293.5,158.5C 297.753,159.596 301.753,160.93 305.5,162.5C 300.413,162.178 295.413,161.345 290.5,160C 287.405,159.065 285.071,157.231 283.5,154.5 Z"/></g>
<g><path style="opacity:0.535" fill="#5f4cce" d="M 67.5,159.5 C 61.1701,161.892 54.5034,163.226 47.5,163.5C 50.8333,162.5 54.1667,161.5 57.5,160.5C 60.8599,160.384 64.1933,160.051 67.5,159.5 Z"/></g>
<g><path style="opacity:1" fill="#6249f7" d="M 153.5,156.5 C 152.417,156.539 151.417,156.873 150.5,157.5C 149.457,159.783 148.791,161.783 148.5,163.5C 147.359,160.938 146.526,158.272 146,155.5C 144.812,156.563 144.312,157.897 144.5,159.5C 144.167,159.5 143.833,159.5 143.5,159.5C 141.807,157.234 139.64,156.9 137,158.5C 135.692,167.158 134.525,175.825 133.5,184.5C 132.679,181.359 132.179,178.025 132,174.5C 131.667,175.5 131.333,176.5 131,177.5C 129.983,175.624 129.149,173.624 128.5,171.5C 127.604,172.506 126.938,172.506 126.5,171.5C 127.025,170.808 127.692,170.308 128.5,170C 126.277,169.348 125.11,167.848 125,165.5C 124.826,170.351 124.326,175.018 123.5,179.5C 123.5,176.167 123.5,172.833 123.5,169.5C 123.205,167.265 123.539,165.265 124.5,163.5C 126.094,160.939 127.094,157.939 127.5,154.5C 130.003,155.55 131.503,154.55 132,151.5C 132.265,153.651 133.265,155.318 135,156.5C 136.766,155.767 138.599,155.433 140.5,155.5C 140.445,152.791 139.778,150.791 138.5,149.5C 137.5,149.5 136.5,149.5 135.5,149.5C 135.649,150.552 135.483,151.552 135,152.5C 134.5,151.333 133.667,150.5 132.5,150C 133.337,148.989 133.67,147.822 133.5,146.5C 137.555,146.176 141.555,146.509 145.5,147.5C 147.623,149.31 149.957,150.643 152.5,151.5C 152.366,153.292 152.699,154.958 153.5,156.5 Z"/></g>
<g><path style="opacity:1" fill="#6546fc" d="M 219.5,177.5 C 219.5,178.167 219.167,178.5 218.5,178.5C 215.65,177.255 213.65,178.255 212.5,181.5C 212.094,180.443 212.094,179.109 212.5,177.5C 211.5,177.5 210.5,177.5 209.5,177.5C 209.05,181.224 210.717,183.391 214.5,184C 212.924,184.44 211.59,185.273 210.5,186.5C 209.167,184.5 207.833,182.5 206.5,180.5C 206.556,179.263 207.056,178.263 208,177.5C 208.169,171.141 208.669,164.807 209.5,158.5C 210.584,157.335 211.417,156.002 212,154.5C 213.043,156.701 213.877,159.034 214.5,161.5C 215.906,162.668 217.072,162.335 218,160.5C 218.173,166.348 218.673,172.015 219.5,177.5 Z"/></g>
<g><path style="opacity:1" fill="#5d47d6" d="M 143.5,159.5 C 143.833,159.5 144.167,159.5 144.5,159.5C 146.281,164.932 146.948,170.599 146.5,176.5C 145.049,171.041 144.049,165.374 143.5,159.5 Z"/></g>
<g><path style="opacity:1" fill="#6648f9" d="M 153.5,156.5 C 153.875,160.442 154.875,164.109 156.5,167.5C 158.022,173.047 158.688,178.714 158.5,184.5C 157.698,183.048 157.198,181.382 157,179.5C 154.479,182.378 151.645,183.045 148.5,181.5C 148.771,179.62 148.104,178.287 146.5,177.5C 146.5,177.167 146.5,176.833 146.5,176.5C 146.948,170.599 146.281,164.932 144.5,159.5C 144.312,157.897 144.812,156.563 146,155.5C 146.526,158.272 147.359,160.938 148.5,163.5C 148.791,161.783 149.457,159.783 150.5,157.5C 151.417,156.873 152.417,156.539 153.5,156.5 Z"/></g>
<g><path style="opacity:0.871" fill="#6b52dc" d="M 241.5,192.5 C 240.514,188.03 240.181,183.363 240.5,178.5C 240.5,167.833 240.5,157.167 240.5,146.5C 237.167,146.5 233.833,146.5 230.5,146.5C 230.5,148.833 230.5,151.167 230.5,153.5C 230.5,173.167 230.5,192.833 230.5,212.5C 233.833,212.5 237.167,212.5 240.5,212.5C 240.178,206.642 240.511,200.975 241.5,195.5C 241.5,201.5 241.5,207.5 241.5,213.5C 237.5,213.5 233.5,213.5 229.5,213.5C 229.5,190.833 229.5,168.167 229.5,145.5C 233.5,145.5 237.5,145.5 241.5,145.5C 241.5,161.167 241.5,176.833 241.5,192.5 Z"/></g>
<g><path style="opacity:1" fill="#6249fc" d="M 240.5,178.5 C 238.83,178.249 237.33,177.582 236,176.5C 234,177.167 232.667,178.5 232,180.5C 231.83,171.324 231.33,162.324 230.5,153.5C 230.5,151.167 230.5,148.833 230.5,146.5C 233.833,146.5 237.167,146.5 240.5,146.5C 240.5,157.167 240.5,167.833 240.5,178.5 Z"/></g>
<g><path style="opacity:1" fill="#6946fc" d="M 40.5,167.5 C 38.5411,173.75 37.8745,180.416 38.5,187.5C 34.8927,187.175 34.226,186.008 36.5,184C 35.354,183.355 34.354,182.522 33.5,181.5C 32.4763,182.853 31.143,183.52 29.5,183.5C 29.8128,179.958 29.4794,176.625 28.5,173.5C 28.5,171.5 28.5,169.5 28.5,167.5C 29.2485,166.469 29.9152,165.302 30.5,164C 32.8015,163.196 34.9681,163.696 37,165.5C 38.7848,164.646 39.9515,165.313 40.5,167.5 Z"/></g>
<g><path style="opacity:1" fill="#a3b8f7" d="M 98.5,156.5 C 96.7222,166.488 96.0555,176.488 96.5,186.5C 94.5864,183.316 93.9197,179.649 94.5,175.5C 89.8182,174.505 88.8182,176.172 91.5,180.5C 90.8333,181.833 89.8333,182.833 88.5,183.5C 87.8112,180.592 86.6445,177.925 85,175.5C 84.5006,181.157 84.3339,186.824 84.5,192.5C 83.5073,184.35 83.1739,176.017 83.5,167.5C 85.4546,166.677 87.4546,166.51 89.5,167C 88.5494,167.718 88.3828,168.551 89,169.5C 89.6667,168.167 90.3333,168.167 91,169.5C 91.5,169 92,168.5 92.5,168C 91.4829,166.951 91.3162,165.784 92,164.5C 92.6667,165.833 93.3333,167.167 94,168.5C 96.003,165.5 96.8364,162.167 96.5,158.5C 96.5,157.167 97.1667,156.5 98.5,156.5 Z"/></g>
<g><path style="opacity:0.371" fill="#654bd4" d="M 40.5,167.5 C 39.3999,175.118 39.2332,182.785 40,190.5C 40.7172,191.044 41.2172,191.711 41.5,192.5C 38.9162,191.952 37.9162,190.285 38.5,187.5C 37.8745,180.416 38.5411,173.75 40.5,167.5 Z"/></g>
<g><path style="opacity:1" fill="#a5b7fa" d="M 274.5,165.5 C 275.492,172.982 275.825,180.648 275.5,188.5C 274.539,186.735 274.205,184.735 274.5,182.5C 273.5,182.5 272.5,182.5 271.5,182.5C 273.145,185.61 272.645,188.276 270,190.5C 270.046,186.324 269.546,181.99 268.5,177.5C 267.914,177.291 267.414,176.957 267,176.5C 267.263,181.816 267.263,187.149 267,192.5C 266.583,191.244 265.75,190.577 264.5,190.5C 263.833,190.833 263.167,191.167 262.5,191.5C 262.833,184.833 263.167,178.167 263.5,171.5C 264.43,167.583 266.096,163.583 268.5,159.5C 268.395,161.401 269.062,163.401 270.5,165.5C 272.105,167.879 273.438,167.879 274.5,165.5 Z"/></g>
<g><path style="opacity:0.953" fill="#7660bb" d="M 187.5,178.5 C 190.059,178.198 192.393,178.532 194.5,179.5C 192.265,179.205 190.265,179.539 188.5,180.5C 188.167,180.5 187.833,180.5 187.5,180.5C 187.5,179.833 187.5,179.167 187.5,178.5 Z"/></g>
<g><path style="opacity:1" fill="#7141fc" d="M 230.5,153.5 C 231.33,162.324 231.83,171.324 232,180.5C 232.667,178.5 234,177.167 236,176.5C 237.33,177.582 238.83,178.249 240.5,178.5C 240.181,183.363 240.514,188.03 241.5,192.5C 242.116,193.798 242.116,194.798 241.5,195.5C 240.511,200.975 240.178,206.642 240.5,212.5C 237.167,212.5 233.833,212.5 230.5,212.5C 230.5,192.833 230.5,173.167 230.5,153.5 Z"/></g>
<g><path style="opacity:0.774" fill="#6649d7" d="M 28.5,167.5 C 28.5,169.5 28.5,171.5 28.5,173.5C 28.0546,181.325 28.888,188.991 31,196.5C 32.6665,198.996 34.4998,201.329 36.5,203.5C 34.629,203.141 33.129,202.141 32,200.5C 30.2895,198.044 28.9562,195.377 28,192.5C 27.1768,183.99 27.3434,175.656 28.5,167.5 Z"/></g>
<g><path style="opacity:1" fill="#703ffb" d="M 174.5,147.5 C 175.468,149.607 175.802,151.941 175.5,154.5C 175.5,163.833 175.5,173.167 175.5,182.5C 176.5,182.5 177.5,182.5 178.5,182.5C 180.933,183.248 183.266,184.415 185.5,186C 184.833,186.333 184.167,186.667 183.5,187C 184.416,187.278 185.082,187.778 185.5,188.5C 185.5,189.167 185.5,189.833 185.5,190.5C 184.508,197.648 184.175,204.981 184.5,212.5C 181.167,212.5 177.833,212.5 174.5,212.5C 174.5,190.833 174.5,169.167 174.5,147.5 Z"/></g>
<g><path style="opacity:1" fill="#6546ed" d="M 211.5,150.5 C 212.167,150.5 212.833,150.5 213.5,150.5C 216.324,152.8 218.157,155.8 219,159.5C 219.499,165.491 219.666,171.491 219.5,177.5C 218.673,172.015 218.173,166.348 218,160.5C 217.072,162.335 215.906,162.668 214.5,161.5C 213.877,159.034 213.043,156.701 212,154.5C 211.417,156.002 210.584,157.335 209.5,158.5C 208.669,164.807 208.169,171.141 208,177.5C 207.056,178.263 206.556,179.263 206.5,180.5C 207.833,182.5 209.167,184.5 210.5,186.5C 211.59,185.273 212.924,184.44 214.5,184C 210.717,183.391 209.05,181.224 209.5,177.5C 210.5,177.5 211.5,177.5 212.5,177.5C 212.094,179.109 212.094,180.443 212.5,181.5C 213.65,178.255 215.65,177.255 218.5,178.5C 214.406,188.723 206.74,193.057 195.5,191.5C 192.083,191.461 188.75,191.127 185.5,190.5C 185.5,189.833 185.5,189.167 185.5,188.5C 193.157,189.695 200.823,189.529 208.5,188C 208.868,186.527 208.368,185.027 207,183.5C 206.667,183.833 206.333,184.167 206,184.5C 203.26,183.718 200.426,183.218 197.5,183C 196.167,182.333 196.167,181.667 197.5,181C 194.518,180.502 191.518,180.335 188.5,180.5C 190.265,179.539 192.265,179.205 194.5,179.5C 198.584,179.957 202.417,179.29 206,177.5C 211.481,158.815 204.648,152.149 185.5,157.5C 192.321,156.671 199.321,156.171 206.5,156C 207.255,153.825 208.088,151.659 209,149.5C 209.333,151.167 209.667,152.833 210,154.5C 211.188,153.437 211.688,152.103 211.5,150.5 Z"/></g>
<g><path style="opacity:1" fill="#7242f6" d="M 28.5,173.5 C 29.4794,176.625 29.8128,179.958 29.5,183.5C 31.143,183.52 32.4763,182.853 33.5,181.5C 34.354,182.522 35.354,183.355 36.5,184C 34.226,186.008 34.8927,187.175 38.5,187.5C 37.9162,190.285 38.9162,191.952 41.5,192.5C 42.6002,193.558 43.9336,194.392 45.5,195C 54.7994,195.826 63.7994,197.826 72.5,201C 77.4589,205.417 80.4589,210.917 81.5,217.5C 79.3655,216.297 78.0322,214.463 77.5,212C 76.2068,211.51 74.8734,211.343 73.5,211.5C 74.0508,207.294 72.2174,204.96 68,204.5C 67.7216,205.416 67.2216,206.082 66.5,206.5C 65.6016,205.842 64.6016,205.176 63.5,204.5C 64.7366,203.719 65.7366,202.719 66.5,201.5C 65.2418,202.016 64.2418,201.35 63.5,199.5C 57.3715,198.033 51.3715,198.367 45.5,200.5C 46.8549,201.675 46.6883,202.675 45,203.5C 42.954,201.624 41.1207,199.624 39.5,197.5C 38.3861,198.723 38.2195,200.056 39,201.5C 41.1327,203.388 43.2993,205.055 45.5,206.5C 42.1978,206.956 39.1978,205.956 36.5,203.5C 34.4998,201.329 32.6665,198.996 31,196.5C 28.888,188.991 28.0546,181.325 28.5,173.5 Z"/></g>
<g><path style="opacity:1" fill="#7142fb" d="M 133.5,184.5 C 137.21,186.136 141.21,186.802 145.5,186.5C 145.937,188.074 146.937,189.241 148.5,190C 147.672,190.915 146.672,191.581 145.5,192C 145.833,192.333 146.167,192.667 146.5,193C 142.7,193.562 142.033,192.562 144.5,190C 143.034,189.365 141.7,188.531 140.5,187.5C 134.358,192.448 135.191,194.782 143,194.5C 145.094,194.464 147.094,194.131 149,193.5C 149.944,199.64 151.11,205.64 152.5,211.5C 155.271,211.579 157.937,211.079 160.5,210C 159.402,209.23 159.402,208.397 160.5,207.5C 161.451,208.919 161.784,210.585 161.5,212.5C 158.167,212.5 154.833,212.5 151.5,212.5C 151.737,211.209 151.404,210.209 150.5,209.5C 149.642,205.327 148.976,200.993 148.5,196.5C 142.347,195.347 136.014,195.18 129.5,196C 128.833,197 128.167,198 127.5,199C 128.574,199.739 129.241,200.739 129.5,202C 128.618,205.441 128.284,208.941 128.5,212.5C 125.167,212.5 121.833,212.5 118.5,212.5C 118.5,210.833 118.5,209.167 118.5,207.5C 119.117,207.389 119.617,207.056 120,206.5C 120.88,197.317 122.047,188.317 123.5,179.5C 124.326,175.018 124.826,170.351 125,165.5C 125.11,167.848 126.277,169.348 128.5,170C 127.692,170.308 127.025,170.808 126.5,171.5C 126.938,172.506 127.604,172.506 128.5,171.5C 129.149,173.624 129.983,175.624 131,177.5C 131.333,176.5 131.667,175.5 132,174.5C 132.179,178.025 132.679,181.359 133.5,184.5 Z"/></g>
<g><path style="opacity:1" fill="#7044fc" d="M 187.5,180.5 C 187.833,180.5 188.167,180.5 188.5,180.5C 191.518,180.335 194.518,180.502 197.5,181C 196.167,181.667 196.167,182.333 197.5,183C 200.426,183.218 203.26,183.718 206,184.5C 206.333,184.167 206.667,183.833 207,183.5C 208.368,185.027 208.868,186.527 208.5,188C 200.823,189.529 193.157,189.695 185.5,188.5C 185.082,187.778 184.416,187.278 183.5,187C 184.167,186.667 184.833,186.333 185.5,186C 183.266,184.415 180.933,183.248 178.5,182.5C 182.057,182.269 185.057,181.603 187.5,180.5 Z"/></g>
<g><path style="opacity:1" fill="#6e43fb" d="M 330.5,191.5 C 328.667,193.832 327.334,196.499 326.5,199.5C 325.089,201.914 323.089,203.581 320.5,204.5C 315.833,205.167 311.167,205.833 306.5,206.5C 308.277,205.4 310.277,204.566 312.5,204C 311.332,202.594 311.665,201.428 313.5,200.5C 311.314,199.779 309.147,199.113 307,198.5C 306.517,199.448 306.351,200.448 306.5,201.5C 305.5,201.5 304.5,201.5 303.5,201.5C 303.649,200.448 303.483,199.448 303,198.5C 300.895,199.311 298.895,200.311 297,201.5C 294.566,200.678 292.066,200.344 289.5,200.5C 294.411,197.939 299.744,196.606 305.5,196.5C 309.182,196.335 312.848,196.501 316.5,197C 317.416,197.374 318.25,197.874 319,198.5C 320.14,188.156 320.807,177.489 321,166.5C 321.29,164.956 321.956,163.623 323,162.5C 324.699,163.406 326.533,163.739 328.5,163.5C 330.267,172.706 330.933,182.039 330.5,191.5 Z"/></g>
<g><path style="opacity:1" fill="#6446d3" d="M 146.5,177.5 C 148.104,178.287 148.771,179.62 148.5,181.5C 148.727,183.933 147.727,185.599 145.5,186.5C 141.21,186.802 137.21,186.136 133.5,184.5C 137.833,184.5 142.167,184.5 146.5,184.5C 146.5,182.167 146.5,179.833 146.5,177.5 Z"/></g>
<g><path style="opacity:1" fill="#aeb3f7" d="M 96.5,186.5 C 96.3497,191.3 97.0164,195.967 98.5,200.5C 96.7868,199.365 96.1201,197.698 96.5,195.5C 94.8967,195.688 93.5634,195.188 92.5,194C 93.7691,189.512 92.7691,189.512 89.5,194C 90.6405,194.741 90.6405,195.575 89.5,196.5C 90.5821,196.749 91.9154,196.915 93.5,197C 93.201,198.32 93.0343,199.82 93,201.5C 92.3333,200.833 91.6667,200.167 91,199.5C 89.7188,199.381 88.5521,199.881 87.5,201C 88.4907,206.131 90.1574,210.964 92.5,215.5C 92.8333,217.5 93.1667,219.5 93.5,221.5C 88.7305,212.517 85.7305,202.85 84.5,192.5C 84.3339,186.824 84.5006,181.157 85,175.5C 86.6445,177.925 87.8112,180.592 88.5,183.5C 89.8333,182.833 90.8333,181.833 91.5,180.5C 88.8182,176.172 89.8182,174.505 94.5,175.5C 93.9197,179.649 94.5864,183.316 96.5,186.5 Z"/></g>
<g><path style="opacity:1" fill="#7441fc" d="M 158.5,184.5 C 158.452,192.256 159.118,199.923 160.5,207.5C 159.402,208.397 159.402,209.23 160.5,210C 157.937,211.079 155.271,211.579 152.5,211.5C 151.11,205.64 149.944,199.64 149,193.5C 147.094,194.131 145.094,194.464 143,194.5C 135.191,194.782 134.358,192.448 140.5,187.5C 141.7,188.531 143.034,189.365 144.5,190C 142.033,192.562 142.7,193.562 146.5,193C 146.167,192.667 145.833,192.333 145.5,192C 146.672,191.581 147.672,190.915 148.5,190C 146.937,189.241 145.937,188.074 145.5,186.5C 147.727,185.599 148.727,183.933 148.5,181.5C 151.645,183.045 154.479,182.378 157,179.5C 157.198,181.382 157.698,183.048 158.5,184.5 Z"/></g>
<g><path style="opacity:1" fill="#6647d5" d="M 123.5,169.5 C 123.5,172.833 123.5,176.167 123.5,179.5C 122.047,188.317 120.88,197.317 120,206.5C 119.617,207.056 119.117,207.389 118.5,207.5C 119.814,194.649 121.48,181.983 123.5,169.5 Z"/></g>
<g><path style="opacity:0.605" fill="#644cd6" d="M 213.5,150.5 C 212.833,150.5 212.167,150.5 211.5,150.5C 209.853,148.879 207.853,147.713 205.5,147C 194.992,146.175 184.658,146.341 174.5,147.5C 174.5,169.167 174.5,190.833 174.5,212.5C 177.833,212.5 181.167,212.5 184.5,212.5C 184.175,204.981 184.508,197.648 185.5,190.5C 185.5,198.167 185.5,205.833 185.5,213.5C 181.5,213.5 177.5,213.5 173.5,213.5C 173.5,190.833 173.5,168.167 173.5,145.5C 184.505,145.333 195.505,145.5 206.5,146C 209.547,146.516 211.88,148.016 213.5,150.5 Z"/></g>
<g><path style="opacity:1" fill="#b2b5fa" d="M 275.5,188.5 C 274.833,192.5 274.167,196.5 273.5,200.5C 272.883,200.389 272.383,200.056 272,199.5C 271.667,200.833 271.333,202.167 271,203.5C 270.333,202.167 269.667,202.167 269,203.5C 267.84,201.203 266.84,201.536 266,204.5C 265.5,204 265,203.5 264.5,203C 263.522,198.459 263.522,194.292 264.5,190.5C 265.75,190.577 266.583,191.244 267,192.5C 267.263,187.149 267.263,181.816 267,176.5C 267.414,176.957 267.914,177.291 268.5,177.5C 269.546,181.99 270.046,186.324 270,190.5C 272.645,188.276 273.145,185.61 271.5,182.5C 272.5,182.5 273.5,182.5 274.5,182.5C 274.205,184.735 274.539,186.735 275.5,188.5 Z"/></g>
<g><path style="opacity:0.467" fill="#6343cd" d="M 330.5,191.5 C 330.741,195.019 329.407,197.685 326.5,199.5C 327.334,196.499 328.667,193.832 330.5,191.5 Z"/></g>
<g><path style="opacity:1" fill="#7840f9" d="M 66.5,206.5 C 68.6669,207.198 70.5002,208.531 72,210.5C 71.5579,214.08 71.3912,217.58 71.5,221C 72.9961,221.507 74.1627,221.007 75,219.5C 75.1667,219.833 75.3333,220.167 75.5,220.5C 74.3595,221.425 74.3595,222.259 75.5,223C 73.1088,223.691 73.1088,224.691 75.5,226C 74.6198,227.356 74.2865,228.856 74.5,230.5C 71.6077,224.008 68.6077,217.508 65.5,211C 58.7148,209.446 52.0481,207.946 45.5,206.5C 43.2993,205.055 41.1327,203.388 39,201.5C 38.2195,200.056 38.3861,198.723 39.5,197.5C 41.1207,199.624 42.954,201.624 45,203.5C 46.6883,202.675 46.8549,201.675 45.5,200.5C 51.3715,198.367 57.3715,198.033 63.5,199.5C 64.2418,201.35 65.2418,202.016 66.5,201.5C 65.7366,202.719 64.7366,203.719 63.5,204.5C 64.6016,205.176 65.6016,205.842 66.5,206.5 Z"/></g>
<g><path style="opacity:1" fill="#793ffd" d="M 306.5,206.5 C 302.369,208.183 298.036,208.85 293.5,208.5C 293.565,208.062 293.399,207.728 293,207.5C 292.716,209.886 291.716,210.552 290,209.5C 287.173,211.086 287.007,212.752 289.5,214.5C 288.57,217.397 286.903,219.73 284.5,221.5C 284.81,219.799 284.31,218.132 283,216.5C 282.333,217.833 281.667,217.833 281,216.5C 280.333,214.833 280.333,213.167 281,211.5C 283.456,207.568 286.29,203.902 289.5,200.5C 292.066,200.344 294.566,200.678 297,201.5C 298.895,200.311 300.895,199.311 303,198.5C 303.483,199.448 303.649,200.448 303.5,201.5C 304.5,201.5 305.5,201.5 306.5,201.5C 306.351,200.448 306.517,199.448 307,198.5C 309.147,199.113 311.314,199.779 313.5,200.5C 311.665,201.428 311.332,202.594 312.5,204C 310.277,204.566 308.277,205.4 306.5,206.5 Z"/></g>
<g><path style="opacity:1" fill="#b6b2fa" d="M 98.5,200.5 C 100.036,205.109 101.37,209.776 102.5,214.5C 101.168,212.868 99.8347,211.201 98.5,209.5C 97.8027,211.385 96.8027,211.718 95.5,210.5C 94.2371,212.029 93.2371,213.695 92.5,215.5C 90.1574,210.964 88.4907,206.131 87.5,201C 88.5521,199.881 89.7188,199.381 91,199.5C 91.6667,200.167 92.3333,200.833 93,201.5C 93.0343,199.82 93.201,198.32 93.5,197C 91.9154,196.915 90.5821,196.749 89.5,196.5C 90.6405,195.575 90.6405,194.741 89.5,194C 92.7691,189.512 93.7691,189.512 92.5,194C 93.5634,195.188 94.8967,195.688 96.5,195.5C 96.1201,197.698 96.7868,199.365 98.5,200.5 Z"/></g>
<g><path style="opacity:1" fill="#b7b0f7" d="M 264.5,190.5 C 263.522,194.292 263.522,198.459 264.5,203C 265,203.5 265.5,204 266,204.5C 266.84,201.536 267.84,201.203 269,203.5C 269.667,202.167 270.333,202.167 271,203.5C 271.333,202.167 271.667,200.833 272,199.5C 272.383,200.056 272.883,200.389 273.5,200.5C 271.845,208.817 268.845,216.484 264.5,223.5C 263.995,219.787 263.662,216.287 263.5,213C 261.833,212.333 260.167,212.333 258.5,213C 257.468,214.627 256.134,215.793 254.5,216.5C 258.594,208.401 261.261,200.068 262.5,191.5C 263.167,191.167 263.833,190.833 264.5,190.5 Z"/></g>
<g><path style="opacity:1" fill="#734ddc" d="M 148.5,196.5 C 142.833,196.5 137.167,196.5 131.5,196.5C 131.16,202.208 130.493,207.875 129.5,213.5C 125.5,213.5 121.5,213.5 117.5,213.5C 117.205,211.265 117.539,209.265 118.5,207.5C 118.5,209.167 118.5,210.833 118.5,212.5C 121.833,212.5 125.167,212.5 128.5,212.5C 128.284,208.941 128.618,205.441 129.5,202C 129.241,200.739 128.574,199.739 127.5,199C 128.167,198 128.833,197 129.5,196C 136.014,195.18 142.347,195.347 148.5,196.5 Z"/></g>
<g><path style="opacity:1" fill="#724ed3" d="M 320.5,204.5 C 311.733,207.358 302.733,209.692 293.5,211.5C 293.5,210.5 293.5,209.5 293.5,208.5C 298.036,208.85 302.369,208.183 306.5,206.5C 311.167,205.833 315.833,205.167 320.5,204.5 Z"/></g>
<g><path style="opacity:0.898" fill="#714ed7" d="M 158.5,184.5 C 160.389,193.867 162.055,203.367 163.5,213C 159.179,213.499 154.846,213.666 150.5,213.5C 150.5,212.167 150.5,210.833 150.5,209.5C 151.404,210.209 151.737,211.209 151.5,212.5C 154.833,212.5 158.167,212.5 161.5,212.5C 161.784,210.585 161.451,208.919 160.5,207.5C 159.118,199.923 158.452,192.256 158.5,184.5 Z"/></g>
<g><path style="opacity:1" fill="#833afb" d="M 81.5,217.5 C 81.3355,221.579 82.6688,224.912 85.5,227.5C 86.9313,228.78 87.5979,230.447 87.5,232.5C 87.8064,235.385 87.4731,238.052 86.5,240.5C 86.6602,238.801 86.4935,237.134 86,235.5C 83.1114,236.518 80.6114,237.851 78.5,239.5C 79.3419,235.379 78.0085,232.379 74.5,230.5C 74.2865,228.856 74.6198,227.356 75.5,226C 73.1088,224.691 73.1088,223.691 75.5,223C 74.3595,222.259 74.3595,221.425 75.5,220.5C 75.3333,220.167 75.1667,219.833 75,219.5C 74.1627,221.007 72.9961,221.507 71.5,221C 71.3912,217.58 71.5579,214.08 72,210.5C 70.5002,208.531 68.6669,207.198 66.5,206.5C 67.2216,206.082 67.7216,205.416 68,204.5C 72.2174,204.96 74.0508,207.294 73.5,211.5C 74.8734,211.343 76.2068,211.51 77.5,212C 78.0322,214.463 79.3655,216.297 81.5,217.5 Z"/></g>
<g><path style="opacity:1" fill="#c1b1fc" d="M 102.5,214.5 C 103.401,215.29 104.068,216.29 104.5,217.5C 104.5,220.167 104.5,222.833 104.5,225.5C 105.675,225.281 106.675,225.614 107.5,226.5C 105.994,227.747 104.494,227.747 103,226.5C 101.022,228.398 99.3551,227.732 98,224.5C 97.3292,225.252 96.4959,225.586 95.5,225.5C 94.3263,224.486 93.6596,223.153 93.5,221.5C 93.1667,219.5 92.8333,217.5 92.5,215.5C 93.2371,213.695 94.2371,212.029 95.5,210.5C 96.8027,211.718 97.8027,211.385 98.5,209.5C 99.8347,211.201 101.168,212.868 102.5,214.5 Z"/></g>
<g><path style="opacity:1" fill="#7c41ed" d="M 289.5,200.5 C 286.29,203.902 283.456,207.568 281,211.5C 280.333,213.167 280.333,214.833 281,216.5C 281.667,217.833 282.333,217.833 283,216.5C 284.31,218.132 284.81,219.799 284.5,221.5C 286.903,219.73 288.57,217.397 289.5,214.5C 287.007,212.752 287.173,211.086 290,209.5C 291.716,210.552 292.716,209.886 293,207.5C 293.399,207.728 293.565,208.062 293.5,208.5C 293.5,209.5 293.5,210.5 293.5,211.5C 290.877,217.714 287.877,223.714 284.5,229.5C 284.773,227.549 284.107,226.049 282.5,225C 283.624,224.751 284.624,224.251 285.5,223.5C 284.284,222.904 282.951,222.737 281.5,223C 280.671,221.184 279.837,219.351 279,217.5C 278.623,218.942 277.79,219.942 276.5,220.5C 278.228,215.485 280.061,210.485 282,205.5C 284.128,203.192 286.628,201.526 289.5,200.5 Z"/></g>
<g><path style="opacity:1" fill="#7a49d6" d="M 81.5,217.5 C 83.3459,220.54 84.6792,223.873 85.5,227.5C 82.6688,224.912 81.3355,221.579 81.5,217.5 Z"/></g>
<g><path style="opacity:0.999" fill="#c5b0f8" d="M 104.5,217.5 C 109.314,226.325 115.314,234.325 122.5,241.5C 119.357,239.597 116.19,237.93 113,236.5C 112.25,237.126 111.416,237.626 110.5,238C 111.863,240.129 111.529,240.629 109.5,239.5C 108.735,240.612 107.735,241.279 106.5,241.5C 101.849,236.871 98.1819,231.537 95.5,225.5C 96.4959,225.586 97.3292,225.252 98,224.5C 99.3551,227.732 101.022,228.398 103,226.5C 104.494,227.747 105.994,227.747 107.5,226.5C 106.675,225.614 105.675,225.281 104.5,225.5C 104.5,222.833 104.5,220.167 104.5,217.5 Z"/></g>
<g><path style="opacity:1" fill="#c4b1f9" d="M 264.5,223.5 C 261.308,231.225 256.641,237.891 250.5,243.5C 249.829,242.153 249.829,240.986 250.5,240C 249.377,238.956 248.044,238.29 246.5,238C 247.571,236.175 246.904,235.008 244.5,234.5C 243.358,235.826 242.024,236.826 240.5,237.5C 245.925,231.062 250.592,224.062 254.5,216.5C 256.134,215.793 257.468,214.627 258.5,213C 260.167,212.333 261.833,212.333 263.5,213C 263.662,216.287 263.995,219.787 264.5,223.5 Z"/></g>
<g><path style="opacity:0.999" fill="#ceb0f8" d="M 250.5,243.5 C 247.683,247.263 244.349,250.597 240.5,253.5C 239.402,252.399 239.235,251.066 240,249.5C 240.718,250.451 241.551,250.617 242.5,250C 241.576,249.15 241.576,248.15 242.5,247C 241.027,245.674 240.194,244.174 240,242.5C 234.764,243.732 230.598,246.565 227.5,251C 229.932,252.087 229.598,252.587 226.5,252.5C 226.265,251.903 225.765,251.57 225,251.5C 223.433,252.856 221.6,253.523 219.5,253.5C 227.001,248.906 234.001,243.573 240.5,237.5C 242.024,236.826 243.358,235.826 244.5,234.5C 246.904,235.008 247.571,236.175 246.5,238C 248.044,238.29 249.377,238.956 250.5,240C 249.829,240.986 249.829,242.153 250.5,243.5 Z"/></g>
<g><path style="opacity:1" fill="#8a36fb" d="M 284.5,229.5 C 284.5,229.833 284.5,230.167 284.5,230.5C 280.668,234.985 280.668,239.651 284.5,244.5C 284,245.5 283.5,246.5 283,247.5C 281.75,246.427 280.416,246.427 279,247.5C 278.05,246.978 277.216,246.311 276.5,245.5C 275.914,245.709 275.414,246.043 275,246.5C 272.189,240.094 271.689,233.427 273.5,226.5C 273.992,224.181 274.992,222.181 276.5,220.5C 277.79,219.942 278.623,218.942 279,217.5C 279.837,219.351 280.671,221.184 281.5,223C 282.951,222.737 284.284,222.904 285.5,223.5C 284.624,224.251 283.624,224.751 282.5,225C 284.107,226.049 284.773,227.549 284.5,229.5 Z"/></g>
<g><path style="opacity:1" fill="#8340e0" d="M 74.5,230.5 C 78.0085,232.379 79.3419,235.379 78.5,239.5C 77.4036,242.386 75.4036,244.386 72.5,245.5C 74.1075,242.619 75.4408,239.619 76.5,236.5C 76.2814,234.307 75.6148,232.307 74.5,230.5 Z"/></g>
<g><path style="opacity:1" fill="#8448d4" d="M 87.5,232.5 C 88.6378,235.304 88.8045,238.304 88,241.5C 87.5762,244.025 86.4095,246.025 84.5,247.5C 84.7135,245.856 84.3802,244.356 83.5,243C 85.1193,242.764 86.1193,241.931 86.5,240.5C 87.4731,238.052 87.8064,235.385 87.5,232.5 Z"/></g>
<g><path style="opacity:1" fill="#d1affa" d="M 122.5,241.5 C 127.395,245.434 132.395,249.1 137.5,252.5C 135.009,252.171 132.843,251.171 131,249.5C 131.263,250.951 131.096,252.284 130.5,253.5C 129.572,251.665 128.406,251.332 127,252.5C 125.933,251.809 124.766,251.309 123.5,251C 123.833,250.667 124.167,250.333 124.5,250C 122.075,249.014 120.409,249.681 119.5,252C 120.315,253.643 121.315,255.143 122.5,256.5C 115.93,252.871 110.597,247.871 106.5,241.5C 107.735,241.279 108.735,240.612 109.5,239.5C 111.529,240.629 111.863,240.129 110.5,238C 111.416,237.626 112.25,237.126 113,236.5C 116.19,237.93 119.357,239.597 122.5,241.5 Z"/></g>
<g><path style="opacity:1" fill="#9435f9" d="M 86.5,240.5 C 86.1193,241.931 85.1193,242.764 83.5,243C 84.3802,244.356 84.7135,245.856 84.5,247.5C 83.0222,247.238 81.6888,247.571 80.5,248.5C 81.5063,249.396 81.5063,250.062 80.5,250.5C 79.8333,249.5 79.1667,248.5 78.5,247.5C 78.1667,247.667 77.8333,247.833 77.5,248C 78.5914,250.064 78.7581,252.231 78,254.5C 76.927,253.72 75.7604,253.887 74.5,255C 75.3081,255.308 75.9747,255.808 76.5,256.5C 76.1543,257.696 75.6543,257.696 75,256.5C 74.5065,258.134 74.3398,259.801 74.5,261.5C 73.5078,264.779 73.3412,268.112 74,271.5C 75.8022,272.789 76.9688,274.456 77.5,276.5C 76.5178,275.859 75.5178,275.193 74.5,274.5C 71.2062,276.007 70.5396,275.174 72.5,272C 71.9529,269.783 70.9529,267.783 69.5,266C 70.5201,263.922 69.8534,262.255 67.5,261C 65.9751,259.991 64.3084,259.491 62.5,259.5C 65.3453,254.473 68.6786,249.806 72.5,245.5C 75.4036,244.386 77.4036,242.386 78.5,239.5C 80.6114,237.851 83.1114,236.518 86,235.5C 86.4935,237.134 86.6602,238.801 86.5,240.5 Z"/></g>
<g><path style="opacity:1" fill="#d5aefb" d="M 240.5,253.5 C 236.049,257.61 231.049,260.944 225.5,263.5C 224.957,263.44 224.624,263.107 224.5,262.5C 225.154,260.885 225.654,259.218 226,257.5C 226.333,257.833 226.667,258.167 227,258.5C 227.388,257.572 228.055,256.905 229,256.5C 230.578,257.547 232.078,257.547 233.5,256.5C 232.232,254.953 230.565,253.953 228.5,253.5C 227.056,254.981 226.389,254.648 226.5,252.5C 229.598,252.587 229.932,252.087 227.5,251C 230.598,246.565 234.764,243.732 240,242.5C 240.194,244.174 241.027,245.674 242.5,247C 241.576,248.15 241.576,249.15 242.5,250C 241.551,250.617 240.718,250.451 240,249.5C 239.235,251.066 239.402,252.399 240.5,253.5 Z"/></g>
<g><path style="opacity:1" fill="#903beb" d="M 273.5,226.5 C 271.689,233.427 272.189,240.094 275,246.5C 275.414,246.043 275.914,245.709 276.5,245.5C 277.216,246.311 278.05,246.978 279,247.5C 280.416,246.427 281.75,246.427 283,247.5C 283.5,246.5 284,245.5 284.5,244.5C 280.668,239.651 280.668,234.985 284.5,230.5C 282.193,234.066 282.026,237.732 284,241.5C 289.678,248.189 294.345,255.523 298,263.5C 298.667,266.5 298.667,269.5 298,272.5C 297.722,273.416 297.222,274.082 296.5,274.5C 296.5,273.833 296.5,273.167 296.5,272.5C 297.034,267.103 295.367,262.603 291.5,259C 292.731,257.817 292.731,256.651 291.5,255.5C 290.549,256.326 289.549,256.492 288.5,256C 288.057,254.482 288.724,253.315 290.5,252.5C 289.15,251.05 287.484,250.383 285.5,250.5C 285.5,251.833 285.5,253.167 285.5,254.5C 284.5,254.5 283.5,254.5 282.5,254.5C 283.656,257.079 284.656,259.745 285.5,262.5C 280.649,257.849 276.482,252.516 273,246.5C 269.528,239.585 269.694,232.919 273.5,226.5 Z"/></g>
<g><path style="opacity:1" fill="#d8adfa" d="M 137.5,252.5 C 140.437,253.472 143.103,254.805 145.5,256.5C 142.262,256.535 139.262,256.035 136.5,255C 137.622,256.613 137.122,257.78 135,258.5C 134.383,259.449 134.549,260.282 135.5,261C 134.619,261.708 133.953,262.542 133.5,263.5C 129.317,261.913 125.65,259.579 122.5,256.5C 121.315,255.143 120.315,253.643 119.5,252C 120.409,249.681 122.075,249.014 124.5,250C 124.167,250.333 123.833,250.667 123.5,251C 124.766,251.309 125.933,251.809 127,252.5C 128.406,251.332 129.572,251.665 130.5,253.5C 131.096,252.284 131.263,250.951 131,249.5C 132.843,251.171 135.009,252.171 137.5,252.5 Z"/></g>
<g><path style="opacity:1" fill="#daacfc" d="M 145.5,256.5 C 146.167,256.5 146.833,256.5 147.5,256.5C 147.5,258.167 147.5,259.833 147.5,261.5C 150.126,260.232 152.293,260.232 154,261.5C 155.662,264.379 154.829,266.545 151.5,268C 152.056,268.383 152.389,268.883 152.5,269.5C 151.508,269.328 150.842,269.662 150.5,270.5C 144.221,269.522 138.555,267.188 133.5,263.5C 133.953,262.542 134.619,261.708 135.5,261C 134.549,260.282 134.383,259.449 135,258.5C 137.122,257.78 137.622,256.613 136.5,255C 139.262,256.035 142.262,256.535 145.5,256.5 Z"/></g>
<g><path style="opacity:1" fill="#8c3ee9" d="M 84.5,247.5 C 81.6547,252.527 78.3214,257.194 74.5,261.5C 74.3398,259.801 74.5065,258.134 75,256.5C 75.6543,257.696 76.1543,257.696 76.5,256.5C 75.9747,255.808 75.3081,255.308 74.5,255C 75.7604,253.887 76.927,253.72 78,254.5C 78.7581,252.231 78.5914,250.064 77.5,248C 77.8333,247.833 78.1667,247.667 78.5,247.5C 79.1667,248.5 79.8333,249.5 80.5,250.5C 81.5063,250.062 81.5063,249.396 80.5,248.5C 81.6888,247.571 83.0222,247.238 84.5,247.5 Z"/></g>
<g><path style="opacity:1" fill="#daabfa" d="M 226.5,252.5 C 226.389,254.648 227.056,254.981 228.5,253.5C 230.565,253.953 232.232,254.953 233.5,256.5C 232.078,257.547 230.578,257.547 229,256.5C 228.055,256.905 227.388,257.572 227,258.5C 226.667,258.167 226.333,257.833 226,257.5C 225.654,259.218 225.154,260.885 224.5,262.5C 224.624,263.107 224.957,263.44 225.5,263.5C 220.694,266.9 215.36,269.233 209.5,270.5C 206.788,268.215 207.121,267.548 210.5,268.5C 211.583,267.635 211.749,266.635 211,265.5C 210.259,266.641 209.425,266.641 208.5,265.5C 207.253,263.994 207.253,262.494 208.5,261C 213.925,263.486 218.925,262.652 223.5,258.5C 220.387,258.538 217.387,258.038 214.5,257C 216.584,256.303 218.251,255.136 219.5,253.5C 221.6,253.523 223.433,252.856 225,251.5C 225.765,251.57 226.265,251.903 226.5,252.5 Z"/></g>
<g><path style="opacity:1" fill="#9b31fc" d="M 296.5,272.5 C 294.338,272.103 293.005,270.769 292.5,268.5C 290.5,269.833 288.833,271.5 287.5,273.5C 287.167,273.167 286.833,272.833 286.5,272.5C 289.501,268.981 289.168,265.981 285.5,263.5C 285.5,263.167 285.5,262.833 285.5,262.5C 284.656,259.745 283.656,257.079 282.5,254.5C 283.5,254.5 284.5,254.5 285.5,254.5C 285.5,253.167 285.5,251.833 285.5,250.5C 287.484,250.383 289.15,251.05 290.5,252.5C 288.724,253.315 288.057,254.482 288.5,256C 289.549,256.492 290.549,256.326 291.5,255.5C 292.731,256.651 292.731,257.817 291.5,259C 295.367,262.603 297.034,267.103 296.5,272.5 Z"/></g>
<g><path style="opacity:1" fill="#daacfb" d="M 219.5,253.5 C 218.251,255.136 216.584,256.303 214.5,257C 217.387,258.038 220.387,258.538 223.5,258.5C 218.925,262.652 213.925,263.486 208.5,261C 207.253,262.494 207.253,263.994 208.5,265.5C 209.425,266.641 210.259,266.641 211,265.5C 211.749,266.635 211.583,267.635 210.5,268.5C 207.121,267.548 206.788,268.215 209.5,270.5C 199.46,274.159 188.96,275.826 178,275.5C 168.338,275.799 159.171,274.132 150.5,270.5C 150.842,269.662 151.508,269.328 152.5,269.5C 155.582,267.931 158.415,268.265 161,270.5C 164.754,269.633 168.587,268.966 172.5,268.5C 174.421,268.14 176.088,267.306 177.5,266C 184.843,265.444 192.177,264.777 199.5,264C 200.71,262.961 201.71,261.794 202.5,260.5C 207.985,257.931 213.651,255.597 219.5,253.5 Z"/></g>
<g><path style="opacity:1" fill="#d6adf9" d="M 147.5,256.5 C 165.443,263.495 183.777,264.829 202.5,260.5C 201.71,261.794 200.71,262.961 199.5,264C 192.177,264.777 184.843,265.444 177.5,266C 176.088,267.306 174.421,268.14 172.5,268.5C 168.587,268.966 164.754,269.633 161,270.5C 158.415,268.265 155.582,267.931 152.5,269.5C 152.389,268.883 152.056,268.383 151.5,268C 154.829,266.545 155.662,264.379 154,261.5C 152.293,260.232 150.126,260.232 147.5,261.5C 147.5,259.833 147.5,258.167 147.5,256.5 Z"/></g>
<g><path style="opacity:1" fill="#933dd9" d="M 62.5,259.5 C 61.8035,266.529 62.8035,273.195 65.5,279.5C 60.2438,273.446 59.2438,266.779 62.5,259.5 Z"/></g>
<g><path style="opacity:1" fill="#9541d9" d="M 131.5,273.5 C 125.879,272.646 120.212,272.313 114.5,272.5C 120.333,269.666 125.999,269.999 131.5,273.5 Z"/></g>
<g><path style="opacity:1" fill="#a22ffb" d="M 62.5,259.5 C 64.3084,259.491 65.9751,259.991 67.5,261C 69.8534,262.255 70.5201,263.922 69.5,266C 70.9529,267.783 71.9529,269.783 72.5,272C 70.5396,275.174 71.2062,276.007 74.5,274.5C 75.5178,275.193 76.5178,275.859 77.5,276.5C 79.5398,278.177 81.5398,279.844 83.5,281.5C 84.8245,284.795 83.4911,286.128 79.5,285.5C 79.8841,287.665 79.2174,289.332 77.5,290.5C 75.4084,288.395 73.0751,286.728 70.5,285.5C 68.1097,284.109 66.4431,282.109 65.5,279.5C 62.8035,273.195 61.8035,266.529 62.5,259.5 Z"/></g>
<g><path style="opacity:1" fill="#a22ffa" d="M 114.5,272.5 C 120.212,272.313 125.879,272.646 131.5,273.5C 131.611,274.117 131.944,274.617 132.5,275C 130.442,276.49 129.109,278.49 128.5,281C 126.08,280.326 123.58,279.493 121,278.5C 118.5,279 116,279.5 113.5,280C 113.986,282.027 113.986,284.193 113.5,286.5C 111.409,286.318 109.409,286.652 107.5,287.5C 105.164,285.77 105.164,284.27 107.5,283C 105.574,282.578 104.574,281.411 104.5,279.5C 107.275,276.395 110.608,274.062 114.5,272.5 Z"/></g>
<g><path style="opacity:1" fill="#a232f5" d="M 252.5,277.5 C 252.937,279.074 253.937,280.241 255.5,281C 253.956,281.29 252.623,281.956 251.5,283C 253.5,283 255.5,283 257.5,283C 255.27,285.234 252.77,287.067 250,288.5C 247.252,287.806 246.418,286.306 247.5,284C 246.049,284.263 244.716,284.096 243.5,283.5C 244.853,282.476 245.52,281.143 245.5,279.5C 243.833,279.5 242.167,279.5 240.5,279.5C 241.09,278.234 241.59,276.901 242,275.5C 243.507,276.535 245.007,276.368 246.5,275C 244.782,274.654 243.115,274.154 241.5,273.5C 239.997,274.59 239.664,275.757 240.5,277C 239.365,277.749 238.365,277.583 237.5,276.5C 240.309,273.574 239.476,272.24 235,272.5C 231.568,273.416 228.068,274.083 224.5,274.5C 234.471,268.608 243.805,269.608 252.5,277.5 Z"/></g>
<g><path style="opacity:1" fill="#9e35ec" d="M 131.5,273.5 C 134.157,273.935 136.491,274.935 138.5,276.5C 136.833,276.5 135.167,276.5 133.5,276.5C 133.134,279.188 132.301,281.521 131,283.5C 135.278,285.87 139.778,287.87 144.5,289.5C 145.258,288.189 146.258,287.689 147.5,288C 149.997,292.087 150.997,296.587 150.5,301.5C 149.844,298.134 148.511,294.968 146.5,292C 139.266,289.448 132.266,286.448 125.5,283C 123.5,282.333 121.5,282.333 119.5,283C 117.636,284.431 115.636,285.597 113.5,286.5C 113.986,284.193 113.986,282.027 113.5,280C 116,279.5 118.5,279 121,278.5C 123.58,279.493 126.08,280.326 128.5,281C 129.109,278.49 130.442,276.49 132.5,275C 131.944,274.617 131.611,274.117 131.5,273.5 Z"/></g>
<g><path style="opacity:1" fill="#a62dfb" d="M 240.5,279.5 C 237.62,280.132 234.786,281.132 232,282.5C 229.922,281.057 229.089,281.724 229.5,284.5C 226.423,284.347 223.589,285.014 221,286.5C 219.893,286.415 218.893,286.081 218,285.5C 216.47,286.92 214.637,287.92 212.5,288.5C 211.754,289.736 211.421,291.07 211.5,292.5C 210.167,292.5 208.833,292.5 207.5,292.5C 207.719,293.675 207.386,294.675 206.5,295.5C 205.575,294.359 204.741,294.359 204,295.5C 203.5,294.333 202.667,293.5 201.5,293C 203.774,290.656 204.941,287.822 205,284.5C 206.916,283.072 209.083,282.072 211.5,281.5C 211.863,280.817 212.196,280.15 212.5,279.5C 216.495,277.835 220.495,276.168 224.5,274.5C 228.068,274.083 231.568,273.416 235,272.5C 239.476,272.24 240.309,273.574 237.5,276.5C 238.365,277.583 239.365,277.749 240.5,277C 239.664,275.757 239.997,274.59 241.5,273.5C 243.115,274.154 244.782,274.654 246.5,275C 245.007,276.368 243.507,276.535 242,275.5C 241.59,276.901 241.09,278.234 240.5,279.5 Z"/></g>
<g><path style="opacity:1" fill="#a52ff8" d="M 285.5,263.5 C 289.168,265.981 289.501,268.981 286.5,272.5C 286.833,272.833 287.167,273.167 287.5,273.5C 288.833,271.5 290.5,269.833 292.5,268.5C 293.005,270.769 294.338,272.103 296.5,272.5C 296.5,273.167 296.5,273.833 296.5,274.5C 293.713,280.967 289.38,286.3 283.5,290.5C 283.167,290.5 282.833,290.5 282.5,290.5C 281.951,288.313 280.785,287.646 279,288.5C 278.383,287.551 278.549,286.718 279.5,286C 278.058,285.623 277.058,284.79 276.5,283.5C 278.909,281.098 280.909,278.431 282.5,275.5C 285.902,272.049 286.902,268.049 285.5,263.5 Z"/></g>
<g><path style="opacity:1" fill="#a133ee" d="M 282.5,275.5 C 280.909,278.431 278.909,281.098 276.5,283.5C 275.542,283.953 274.708,284.619 274,285.5C 273.695,287.557 273.695,289.557 274,291.5C 273.085,290.672 272.419,289.672 272,288.5C 271.586,288.957 271.086,289.291 270.5,289.5C 266.924,287.958 263.258,287.125 259.5,287C 260.579,287.956 261.745,288.789 263,289.5C 263.591,290.483 263.257,291.15 262,291.5C 260.395,290.899 259.062,289.899 258,288.5C 255.931,289.264 253.764,289.764 251.5,290C 253.324,290.66 254.657,291.827 255.5,293.5C 250.372,291.096 245.705,287.929 241.5,284C 239.863,283.399 238.197,282.899 236.5,282.5C 234.238,283.467 231.905,284.134 229.5,284.5C 229.089,281.724 229.922,281.057 232,282.5C 234.786,281.132 237.62,280.132 240.5,279.5C 242.167,279.5 243.833,279.5 245.5,279.5C 245.52,281.143 244.853,282.476 243.5,283.5C 244.716,284.096 246.049,284.263 247.5,284C 246.418,286.306 247.252,287.806 250,288.5C 252.77,287.067 255.27,285.234 257.5,283C 255.5,283 253.5,283 251.5,283C 252.623,281.956 253.956,281.29 255.5,281C 253.937,280.241 252.937,279.074 252.5,277.5C 257.25,280.917 262.25,283.917 267.5,286.5C 269.61,285.946 271.61,285.112 273.5,284C 276.369,280.962 279.369,278.129 282.5,275.5 Z"/></g>
<g><path style="opacity:1" fill="#a134ed" d="M 104.5,279.5 C 104.574,281.411 105.574,282.578 107.5,283C 105.164,284.27 105.164,285.77 107.5,287.5C 109.409,286.652 111.409,286.318 113.5,286.5C 109.194,290.321 104.527,293.655 99.5,296.5C 91.0375,299.974 83.3709,298.474 76.5,292C 74.2941,289.963 72.2941,287.797 70.5,285.5C 73.0751,286.728 75.4084,288.395 77.5,290.5C 79.2174,289.332 79.8841,287.665 79.5,285.5C 83.4911,286.128 84.8245,284.795 83.5,281.5C 85.6373,283.962 88.304,285.629 91.5,286.5C 96.0994,284.545 100.433,282.212 104.5,279.5 Z"/></g>
<g><path style="opacity:1" fill="#a82cfc" d="M 99.5,296.5 C 94.8215,296.666 90.1548,296.499 85.5,296C 87.087,295.138 88.7536,294.471 90.5,294C 87.2855,293.726 84.6188,292.393 82.5,290C 84.4812,289.395 84.8146,288.395 83.5,287C 86.2017,286.393 88.8684,286.56 91.5,287.5C 95.4147,285.944 99.2481,285.277 103,285.5C 104.015,288.063 105.515,289.396 107.5,289.5C 105.172,290.724 102.839,290.724 100.5,289.5C 99.3776,291.044 99.711,292.377 101.5,293.5C 100.388,294.265 99.7214,295.265 99.5,296.5 Z"/></g>
<g><path style="opacity:1" fill="#aa2cfd" d="M 276.5,283.5 C 277.058,284.79 278.058,285.623 279.5,286C 278.549,286.718 278.383,287.551 279,288.5C 280.785,287.646 281.951,288.313 282.5,290.5C 280.21,288.967 279.544,289.3 280.5,291.5C 278.922,292.298 277.256,292.798 275.5,293C 276.167,293.333 276.833,293.667 277.5,294C 272.405,296.322 267.071,296.988 261.5,296C 263.301,295.683 263.634,295.016 262.5,294C 260.19,293.503 257.857,293.337 255.5,293.5C 254.657,291.827 253.324,290.66 251.5,290C 253.764,289.764 255.931,289.264 258,288.5C 259.062,289.899 260.395,290.899 262,291.5C 263.257,291.15 263.591,290.483 263,289.5C 261.745,288.789 260.579,287.956 259.5,287C 263.258,287.125 266.924,287.958 270.5,289.5C 271.086,289.291 271.586,288.957 272,288.5C 272.419,289.672 273.085,290.672 274,291.5C 273.695,289.557 273.695,287.557 274,285.5C 274.708,284.619 275.542,283.953 276.5,283.5 Z"/></g>
<g><path style="opacity:1" fill="#aa2dfa" d="M 138.5,276.5 C 144.392,277.682 149.725,280.015 154.5,283.5C 154.022,286.278 155.022,288.278 157.5,289.5C 160.069,294.915 160.903,300.581 160,306.5C 156.966,306.741 155.466,308.741 155.5,312.5C 154.5,312.5 153.5,312.5 152.5,312.5C 152.665,309.482 152.498,306.482 152,303.5C 151.722,302.584 151.222,301.918 150.5,301.5C 150.997,296.587 149.997,292.087 147.5,288C 146.258,287.689 145.258,288.189 144.5,289.5C 139.778,287.87 135.278,285.87 131,283.5C 132.301,281.521 133.134,279.188 133.5,276.5C 135.167,276.5 136.833,276.5 138.5,276.5 Z"/></g>
<g><path style="opacity:1" fill="#a633ef" d="M 212.5,279.5 C 212.196,280.15 211.863,280.817 211.5,281.5C 209.083,282.072 206.916,283.072 205,284.5C 204.941,287.822 203.774,290.656 201.5,293C 202.667,293.5 203.5,294.333 204,295.5C 204.741,294.359 205.575,294.359 206.5,295.5C 207.386,294.675 207.719,293.675 207.5,292.5C 208.833,292.5 210.167,292.5 211.5,292.5C 211.421,291.07 211.754,289.736 212.5,288.5C 214.637,287.92 216.47,286.92 218,285.5C 218.893,286.081 219.893,286.415 221,286.5C 223.589,285.014 226.423,284.347 229.5,284.5C 224.62,287.771 219.286,290.271 213.5,292C 212.667,292.833 211.833,293.667 211,294.5C 209.334,302.492 207.668,310.492 206,318.5C 205.065,321.595 203.231,323.929 200.5,325.5C 200.586,324.504 200.252,323.671 199.5,323C 200.624,322.751 201.624,322.251 202.5,321.5C 201.355,320.109 201.355,318.776 202.5,317.5C 203.086,317.709 203.586,318.043 204,318.5C 206.392,312.772 207.059,306.772 206,300.5C 204.795,299.929 203.628,299.262 202.5,298.5C 201.359,297.575 201.359,296.741 202.5,296C 201.552,295.517 200.552,295.351 199.5,295.5C 200.15,293.565 200.483,291.565 200.5,289.5C 202.351,283.654 206.351,280.32 212.5,279.5 Z"/></g>
<g><path style="opacity:1" fill="#9d37e4" d="M 282.5,290.5 C 282.833,290.5 283.167,290.5 283.5,290.5C 277.432,298.02 269.765,300.186 260.5,297C 258.416,296.303 256.749,295.136 255.5,293.5C 257.857,293.337 260.19,293.503 262.5,294C 263.634,295.016 263.301,295.683 261.5,296C 267.071,296.988 272.405,296.322 277.5,294C 276.833,293.667 276.167,293.333 275.5,293C 277.256,292.798 278.922,292.298 280.5,291.5C 279.544,289.3 280.21,288.967 282.5,290.5 Z"/></g>
<g><path style="opacity:1" fill="#9a3bda" d="M 200.5,289.5 C 200.483,291.565 200.15,293.565 199.5,295.5C 199.119,299.119 198.119,302.452 196.5,305.5C 196.454,299.702 197.787,294.369 200.5,289.5 Z"/></g>
<g><path style="opacity:1" fill="#a934e8" d="M 154.5,283.5 C 157.621,286.138 159.788,289.472 161,293.5C 161.931,301.653 163.431,309.653 165.5,317.5C 164.85,317.196 164.183,316.863 163.5,316.5C 160.871,307.451 157.871,307.284 154.5,316C 156.136,319.813 158.136,323.313 160.5,326.5C 160.5,326.833 160.5,327.167 160.5,327.5C 156.885,325.979 154.385,323.313 153,319.5C 151.559,313.581 150.726,307.581 150.5,301.5C 151.222,301.918 151.722,302.584 152,303.5C 152.498,306.482 152.665,309.482 152.5,312.5C 153.5,312.5 154.5,312.5 155.5,312.5C 155.466,308.741 156.966,306.741 160,306.5C 160.903,300.581 160.069,294.915 157.5,289.5C 155.022,288.278 154.022,286.278 154.5,283.5 Z"/></g>
<g><path style="opacity:1" fill="#b828fa" d="M 199.5,295.5 C 200.552,295.351 201.552,295.517 202.5,296C 201.359,296.741 201.359,297.575 202.5,298.5C 203.628,299.262 204.795,299.929 206,300.5C 207.059,306.772 206.392,312.772 204,318.5C 203.586,318.043 203.086,317.709 202.5,317.5C 201.355,318.776 201.355,320.109 202.5,321.5C 201.624,322.251 200.624,322.751 199.5,323C 200.252,323.671 200.586,324.504 200.5,325.5C 198.156,328.342 195.156,330.175 191.5,331C 183.167,331.667 174.833,331.667 166.5,331C 164.121,330.284 162.121,329.117 160.5,327.5C 160.5,327.167 160.5,326.833 160.5,326.5C 168.982,324.25 177.649,322.916 186.5,322.5C 188.64,322.444 190.306,321.777 191.5,320.5C 192.925,319.078 193.925,317.411 194.5,315.5C 194.753,311.96 195.419,308.627 196.5,305.5C 198.119,302.452 199.119,299.119 199.5,295.5 Z"/></g>
<g><path style="opacity:0.384" fill="#a139d4" d="M 194.5,315.5 C 193.925,317.411 192.925,319.078 191.5,320.5C 183.493,320.666 175.493,320.5 167.5,320C 166.748,319.329 166.414,318.496 166.5,317.5C 167.289,317.783 167.956,318.283 168.5,319C 175.5,319.667 182.5,319.667 189.5,319C 191.323,318.003 192.99,316.836 194.5,315.5 Z"/></g>
<g><path style="opacity:1" fill="#ba24fc" d="M 165.5,317.5 C 165.833,317.5 166.167,317.5 166.5,317.5C 166.414,318.496 166.748,319.329 167.5,320C 175.493,320.5 183.493,320.666 191.5,320.5C 190.306,321.777 188.64,322.444 186.5,322.5C 177.649,322.916 168.982,324.25 160.5,326.5C 158.136,323.313 156.136,319.813 154.5,316C 157.871,307.284 160.871,307.451 163.5,316.5C 164.183,316.863 164.85,317.196 165.5,317.5 Z"/></g>
</svg>
