<?xml version="1.0" standalone="no"?>
<!DOCTYPE svg PUBLIC "-//W3C//DTD SVG 20010904//EN"
 "http://www.w3.org/TR/2001/REC-SVG-20010904/DTD/svg10.dtd">
<svg version="1.0" xmlns="http://www.w3.org/2000/svg"
 width="360.000000pt" height="360.000000pt" viewBox="0 0 360.000000 360.000000"
 preserveAspectRatio="xMidYMid meet">

<g transform="translate(0.000000,360.000000) scale(0.100000,-0.100000)"
fill="#000000" stroke="none">
<path d="M1710 3310 c-57 -5 -92 -22 -131 -62 -29 -32 -38 -58 -59 -180 -10
-59 -23 -116 -29 -127 -6 -11 -37 -29 -68 -41 -32 -12 -88 -35 -125 -51 -80
-35 -86 -34 -201 50 -93 68 -122 81 -178 81 -59 0 -103 -22 -171 -87 -156
-149 -165 -223 -48 -388 38 -54 72 -106 75 -116 4 -11 -11 -57 -34 -109 -23
-49 -41 -97 -41 -105 0 -8 -12 -28 -27 -45 -25 -26 -40 -31 -146 -49 -137 -23
-175 -43 -215 -109 -26 -45 -27 -53 -27 -172 1 -118 2 -129 28 -172 38 -66 77
-86 209 -108 62 -11 123 -25 135 -31 13 -7 30 -33 39 -58 9 -25 30 -75 45
-110 43 -93 40 -113 -32 -212 -73 -99 -89 -134 -89 -189 0 -62 23 -105 101
-186 80 -82 135 -114 197 -114 57 0 82 12 177 80 121 87 118 87 233 39 133
-55 160 -69 167 -88 4 -9 15 -64 24 -122 22 -131 43 -175 104 -213 45 -28 51
-29 177 -29 126 0 132 1 177 29 60 38 78 75 103 213 12 63 25 122 30 131 5 10
31 26 57 36 27 9 82 32 125 51 91 40 94 39 211 -46 94 -68 122 -81 179 -81 62
0 117 32 197 114 77 80 101 124 101 185 0 56 -13 85 -81 178 -74 102 -81 119
-64 163 43 114 84 204 101 220 13 13 55 25 137 39 135 23 176 43 211 104 48
84 46 284 -5 360 -39 59 -69 73 -205 97 -131 24 -151 35 -173 97 -7 21 -28 72
-47 115 -41 91 -40 93 46 213 33 45 64 95 70 109 14 39 12 101 -5 142 -17 42
-113 145 -175 188 -39 27 -53 31 -111 31 -64 0 -69 -2 -138 -50 -39 -27 -91
-63 -116 -79 l-46 -30 -52 23 c-29 12 -86 36 -128 52 -49 19 -80 38 -88 52 -7
13 -20 71 -30 129 -22 129 -44 174 -102 210 -37 23 -57 28 -129 31 -47 1 -110
0 -140 -3z m203 -111 c36 -16 45 -40 66 -166 27 -161 49 -190 174 -238 34 -13
87 -35 117 -49 63 -30 135 -34 179 -11 16 8 67 41 112 75 115 82 135 82 225
-2 37 -35 73 -78 81 -96 17 -40 9 -58 -81 -187 -51 -72 -60 -92 -64 -139 -4
-45 1 -65 31 -132 19 -44 40 -97 47 -119 18 -58 57 -105 104 -126 23 -10 86
-25 141 -34 154 -25 169 -42 163 -192 -4 -127 -13 -135 -172 -162 -155 -26
-189 -47 -229 -146 -16 -39 -42 -99 -58 -134 -33 -73 -38 -144 -13 -194 9 -18
43 -68 74 -112 67 -94 73 -107 60 -141 -15 -37 -120 -144 -158 -161 -40 -17
-53 -11 -192 84 -83 57 -96 63 -143 63 -35 0 -70 -9 -107 -26 -30 -14 -83 -37
-118 -50 -124 -47 -150 -83 -177 -254 -23 -146 -31 -154 -169 -158 -102 -4
-104 -3 -135 25 -28 25 -32 39 -50 146 -29 179 -33 183 -253 276 -154 65 -176
61 -343 -57 -47 -34 -86 -54 -105 -54 -34 -1 -99 48 -155 116 -52 64 -48 92
25 195 34 45 67 96 75 112 26 49 19 111 -24 212 -22 50 -43 105 -47 120 -4 16
-23 46 -43 67 -39 41 -86 58 -221 79 -123 19 -140 40 -140 171 0 134 15 150
160 175 175 29 214 56 259 185 13 36 34 86 47 112 17 33 24 64 24 103 0 52 -4
61 -75 165 -100 148 -100 157 -1 256 98 98 116 99 236 13 143 -103 184 -110
309 -56 42 19 103 45 136 58 87 36 110 74 136 219 22 121 36 155 72 170 32 13
192 12 220 -1z"/>
<path d="M1335 2126 c-62 -28 -64 -35 -106 -333 -21 -153 -39 -290 -39 -305 0
-27 2 -28 49 -28 57 0 57 0 67 99 l7 71 92 0 93 0 6 -47 c4 -27 9 -65 12 -85
l6 -38 54 0 55 0 -5 33 c-6 35 -23 154 -57 402 -23 174 -36 210 -77 227 -43
17 -124 20 -157 4z m109 -123 c8 -39 36 -234 36 -250 0 -10 -20 -13 -75 -13
l-76 0 6 33 c8 50 35 239 35 249 0 4 15 8 34 8 29 0 35 -4 40 -27z"/>
<path d="M1750 1800 l0 -340 50 0 50 0 0 115 0 115 105 0 c121 0 167 16 207
72 19 28 24 48 27 127 4 113 -7 156 -51 197 -49 46 -85 54 -244 54 l-144 0 0
-340z m308 214 c20 -14 22 -24 22 -99 0 -112 -3 -115 -131 -115 l-99 0 0 108
c0 60 3 112 7 115 3 4 45 7 92 7 62 0 93 -4 109 -16z"/>
<path d="M2310 1800 l0 -341 53 3 52 3 0 335 0 335 -52 3 -53 3 0 -341z"/>
</g>
</svg>
